<?xml version="1.0" encoding="utf-8" standalone="no"?>
<!DOCTYPE svg PUBLIC "-//W3C//DTD SVG 1.1//EN"
  "http://www.w3.org/Graphics/SVG/1.1/DTD/svg11.dtd">
<svg xmlns:xlink="http://www.w3.org/1999/xlink" width="758.382187pt" height="276.48pt" viewBox="0 0 758.382187 276.48" xmlns="http://www.w3.org/2000/svg" version="1.1">
 <metadata>
  <rdf:RDF xmlns:dc="http://purl.org/dc/elements/1.1/" xmlns:cc="http://creativecommons.org/ns#" xmlns:rdf="http://www.w3.org/1999/02/22-rdf-syntax-ns#">
   <cc:Work>
    <dc:type rdf:resource="http://purl.org/dc/dcmitype/StillImage"/>
    <dc:date>2024-09-13T14:57:39.875185</dc:date>
    <dc:format>image/svg+xml</dc:format>
    <dc:creator>
     <cc:Agent>
      <dc:title>Matplotlib v3.8.1, https://matplotlib.org/</dc:title>
     </cc:Agent>
    </dc:creator>
   </cc:Work>
  </rdf:RDF>
 </metadata>
 <defs>
  <style type="text/css">*{stroke-linejoin: round; stroke-linecap: butt}</style>
 </defs>
 <g id="figure_1">
  <g id="patch_1">
   <path d="M 0 276.48 
L 758.382187 276.48 
L 758.382187 0 
L 0 0 
z
" style="fill: #ffffff"/>
  </g>
  <g id="axes_1">
   <g id="patch_2">
    <path d="M 46.964375 211.218844 
L 557.28 211.218844 
L 557.28 7.2 
L 46.964375 7.2 
z
" style="fill: #eaeaf2"/>
   </g>
   <g id="matplotlib.axis_1">
    <g id="xtick_1">
     <g id="text_1">
      <!-- online -->
      <g style="fill: #262626" transform="translate(60.637118 228.592437) scale(0.11 -0.11)">
       <defs>
        <path id="ArialMT-6f" d="M 213 1659 
Q 213 2581 725 3025 
Q 1153 3394 1769 3394 
Q 2453 3394 2887 2945 
Q 3322 2497 3322 1706 
Q 3322 1066 3130 698 
Q 2938 331 2570 128 
Q 2203 -75 1769 -75 
Q 1072 -75 642 372 
Q 213 819 213 1659 
z
M 791 1659 
Q 791 1022 1069 705 
Q 1347 388 1769 388 
Q 2188 388 2466 706 
Q 2744 1025 2744 1678 
Q 2744 2294 2464 2611 
Q 2184 2928 1769 2928 
Q 1347 2928 1069 2612 
Q 791 2297 791 1659 
z
" transform="scale(0.015625)"/>
        <path id="ArialMT-6e" d="M 422 0 
L 422 3319 
L 928 3319 
L 928 2847 
Q 1294 3394 1984 3394 
Q 2284 3394 2536 3286 
Q 2788 3178 2913 3003 
Q 3038 2828 3088 2588 
Q 3119 2431 3119 2041 
L 3119 0 
L 2556 0 
L 2556 2019 
Q 2556 2363 2490 2533 
Q 2425 2703 2258 2804 
Q 2091 2906 1866 2906 
Q 1506 2906 1245 2678 
Q 984 2450 984 1813 
L 984 0 
L 422 0 
z
" transform="scale(0.015625)"/>
        <path id="ArialMT-6c" d="M 409 0 
L 409 4581 
L 972 4581 
L 972 0 
L 409 0 
z
" transform="scale(0.015625)"/>
        <path id="ArialMT-69" d="M 425 3934 
L 425 4581 
L 988 4581 
L 988 3934 
L 425 3934 
z
M 425 0 
L 425 3319 
L 988 3319 
L 988 0 
L 425 0 
z
" transform="scale(0.015625)"/>
        <path id="ArialMT-65" d="M 2694 1069 
L 3275 997 
Q 3138 488 2766 206 
Q 2394 -75 1816 -75 
Q 1088 -75 661 373 
Q 234 822 234 1631 
Q 234 2469 665 2931 
Q 1097 3394 1784 3394 
Q 2450 3394 2872 2941 
Q 3294 2488 3294 1666 
Q 3294 1616 3291 1516 
L 816 1516 
Q 847 969 1125 678 
Q 1403 388 1819 388 
Q 2128 388 2347 550 
Q 2566 713 2694 1069 
z
M 847 1978 
L 2700 1978 
Q 2663 2397 2488 2606 
Q 2219 2931 1791 2931 
Q 1403 2931 1139 2672 
Q 875 2413 847 1978 
z
" transform="scale(0.015625)"/>
       </defs>
       <use xlink:href="#ArialMT-6f"/>
       <use xlink:href="#ArialMT-6e" x="55.615234"/>
       <use xlink:href="#ArialMT-6c" x="111.230469"/>
       <use xlink:href="#ArialMT-69" x="133.447266"/>
       <use xlink:href="#ArialMT-6e" x="155.664062"/>
       <use xlink:href="#ArialMT-65" x="211.279297"/>
      </g>
      <!-- company -->
      <g style="fill: #262626" transform="translate(52.999852 240.227) scale(0.11 -0.11)">
       <defs>
        <path id="ArialMT-63" d="M 2588 1216 
L 3141 1144 
Q 3050 572 2676 248 
Q 2303 -75 1759 -75 
Q 1078 -75 664 370 
Q 250 816 250 1647 
Q 250 2184 428 2587 
Q 606 2991 970 3192 
Q 1334 3394 1763 3394 
Q 2303 3394 2647 3120 
Q 2991 2847 3088 2344 
L 2541 2259 
Q 2463 2594 2264 2762 
Q 2066 2931 1784 2931 
Q 1359 2931 1093 2626 
Q 828 2322 828 1663 
Q 828 994 1084 691 
Q 1341 388 1753 388 
Q 2084 388 2306 591 
Q 2528 794 2588 1216 
z
" transform="scale(0.015625)"/>
        <path id="ArialMT-6d" d="M 422 0 
L 422 3319 
L 925 3319 
L 925 2853 
Q 1081 3097 1340 3245 
Q 1600 3394 1931 3394 
Q 2300 3394 2536 3241 
Q 2772 3088 2869 2813 
Q 3263 3394 3894 3394 
Q 4388 3394 4653 3120 
Q 4919 2847 4919 2278 
L 4919 0 
L 4359 0 
L 4359 2091 
Q 4359 2428 4304 2576 
Q 4250 2725 4106 2815 
Q 3963 2906 3769 2906 
Q 3419 2906 3187 2673 
Q 2956 2441 2956 1928 
L 2956 0 
L 2394 0 
L 2394 2156 
Q 2394 2531 2256 2718 
Q 2119 2906 1806 2906 
Q 1569 2906 1367 2781 
Q 1166 2656 1075 2415 
Q 984 2175 984 1722 
L 984 0 
L 422 0 
z
" transform="scale(0.015625)"/>
        <path id="ArialMT-70" d="M 422 -1272 
L 422 3319 
L 934 3319 
L 934 2888 
Q 1116 3141 1344 3267 
Q 1572 3394 1897 3394 
Q 2322 3394 2647 3175 
Q 2972 2956 3137 2557 
Q 3303 2159 3303 1684 
Q 3303 1175 3120 767 
Q 2938 359 2589 142 
Q 2241 -75 1856 -75 
Q 1575 -75 1351 44 
Q 1128 163 984 344 
L 984 -1272 
L 422 -1272 
z
M 931 1641 
Q 931 1000 1190 694 
Q 1450 388 1819 388 
Q 2194 388 2461 705 
Q 2728 1022 2728 1688 
Q 2728 2322 2467 2637 
Q 2206 2953 1844 2953 
Q 1484 2953 1207 2617 
Q 931 2281 931 1641 
z
" transform="scale(0.015625)"/>
        <path id="ArialMT-61" d="M 2588 409 
Q 2275 144 1986 34 
Q 1697 -75 1366 -75 
Q 819 -75 525 192 
Q 231 459 231 875 
Q 231 1119 342 1320 
Q 453 1522 633 1644 
Q 813 1766 1038 1828 
Q 1203 1872 1538 1913 
Q 2219 1994 2541 2106 
Q 2544 2222 2544 2253 
Q 2544 2597 2384 2738 
Q 2169 2928 1744 2928 
Q 1347 2928 1158 2789 
Q 969 2650 878 2297 
L 328 2372 
Q 403 2725 575 2942 
Q 747 3159 1072 3276 
Q 1397 3394 1825 3394 
Q 2250 3394 2515 3294 
Q 2781 3194 2906 3042 
Q 3031 2891 3081 2659 
Q 3109 2516 3109 2141 
L 3109 1391 
Q 3109 606 3145 398 
Q 3181 191 3288 0 
L 2700 0 
Q 2613 175 2588 409 
z
M 2541 1666 
Q 2234 1541 1622 1453 
Q 1275 1403 1131 1340 
Q 988 1278 909 1158 
Q 831 1038 831 891 
Q 831 666 1001 516 
Q 1172 366 1500 366 
Q 1825 366 2078 508 
Q 2331 650 2450 897 
Q 2541 1088 2541 1459 
L 2541 1666 
z
" transform="scale(0.015625)"/>
        <path id="ArialMT-79" d="M 397 -1278 
L 334 -750 
Q 519 -800 656 -800 
Q 844 -800 956 -737 
Q 1069 -675 1141 -563 
Q 1194 -478 1313 -144 
Q 1328 -97 1363 -6 
L 103 3319 
L 709 3319 
L 1400 1397 
Q 1534 1031 1641 628 
Q 1738 1016 1872 1384 
L 2581 3319 
L 3144 3319 
L 1881 -56 
Q 1678 -603 1566 -809 
Q 1416 -1088 1222 -1217 
Q 1028 -1347 759 -1347 
Q 597 -1347 397 -1278 
z
" transform="scale(0.015625)"/>
       </defs>
       <use xlink:href="#ArialMT-63"/>
       <use xlink:href="#ArialMT-6f" x="50"/>
       <use xlink:href="#ArialMT-6d" x="105.615234"/>
       <use xlink:href="#ArialMT-70" x="188.916016"/>
       <use xlink:href="#ArialMT-61" x="244.53125"/>
       <use xlink:href="#ArialMT-6e" x="300.146484"/>
       <use xlink:href="#ArialMT-79" x="355.761719"/>
      </g>
      <!-- demos -->
      <g style="fill: #262626" transform="translate(58.808368 251.990469) scale(0.11 -0.11)">
       <defs>
        <path id="ArialMT-64" d="M 2575 0 
L 2575 419 
Q 2259 -75 1647 -75 
Q 1250 -75 917 144 
Q 584 363 401 755 
Q 219 1147 219 1656 
Q 219 2153 384 2558 
Q 550 2963 881 3178 
Q 1213 3394 1622 3394 
Q 1922 3394 2156 3267 
Q 2391 3141 2538 2938 
L 2538 4581 
L 3097 4581 
L 3097 0 
L 2575 0 
z
M 797 1656 
Q 797 1019 1065 703 
Q 1334 388 1700 388 
Q 2069 388 2326 689 
Q 2584 991 2584 1609 
Q 2584 2291 2321 2609 
Q 2059 2928 1675 2928 
Q 1300 2928 1048 2622 
Q 797 2316 797 1656 
z
" transform="scale(0.015625)"/>
        <path id="ArialMT-73" d="M 197 991 
L 753 1078 
Q 800 744 1014 566 
Q 1228 388 1613 388 
Q 2000 388 2187 545 
Q 2375 703 2375 916 
Q 2375 1106 2209 1216 
Q 2094 1291 1634 1406 
Q 1016 1563 777 1677 
Q 538 1791 414 1992 
Q 291 2194 291 2438 
Q 291 2659 392 2848 
Q 494 3038 669 3163 
Q 800 3259 1026 3326 
Q 1253 3394 1513 3394 
Q 1903 3394 2198 3281 
Q 2494 3169 2634 2976 
Q 2775 2784 2828 2463 
L 2278 2388 
Q 2241 2644 2061 2787 
Q 1881 2931 1553 2931 
Q 1166 2931 1000 2803 
Q 834 2675 834 2503 
Q 834 2394 903 2306 
Q 972 2216 1119 2156 
Q 1203 2125 1616 2013 
Q 2213 1853 2448 1751 
Q 2684 1650 2818 1456 
Q 2953 1263 2953 975 
Q 2953 694 2789 445 
Q 2625 197 2315 61 
Q 2006 -75 1616 -75 
Q 969 -75 630 194 
Q 291 463 197 991 
z
" transform="scale(0.015625)"/>
       </defs>
       <use xlink:href="#ArialMT-64"/>
       <use xlink:href="#ArialMT-65" x="55.615234"/>
       <use xlink:href="#ArialMT-6d" x="111.230469"/>
       <use xlink:href="#ArialMT-6f" x="194.53125"/>
       <use xlink:href="#ArialMT-73" x="250.146484"/>
      </g>
     </g>
    </g>
    <g id="xtick_2">
     <g id="text_2">
      <!-- in-person -->
      <g style="fill: #262626" transform="translate(109.089714 228.592437) scale(0.11 -0.11)">
       <defs>
        <path id="ArialMT-2d" d="M 203 1375 
L 203 1941 
L 1931 1941 
L 1931 1375 
L 203 1375 
z
" transform="scale(0.015625)"/>
        <path id="ArialMT-72" d="M 416 0 
L 416 3319 
L 922 3319 
L 922 2816 
Q 1116 3169 1280 3281 
Q 1444 3394 1641 3394 
Q 1925 3394 2219 3213 
L 2025 2691 
Q 1819 2813 1613 2813 
Q 1428 2813 1281 2702 
Q 1134 2591 1072 2394 
Q 978 2094 978 1738 
L 978 0 
L 416 0 
z
" transform="scale(0.015625)"/>
       </defs>
       <use xlink:href="#ArialMT-69"/>
       <use xlink:href="#ArialMT-6e" x="22.216797"/>
       <use xlink:href="#ArialMT-2d" x="77.832031"/>
       <use xlink:href="#ArialMT-70" x="111.132812"/>
       <use xlink:href="#ArialMT-65" x="166.748047"/>
       <use xlink:href="#ArialMT-72" x="222.363281"/>
       <use xlink:href="#ArialMT-73" x="255.664062"/>
       <use xlink:href="#ArialMT-6f" x="305.664062"/>
       <use xlink:href="#ArialMT-6e" x="361.279297"/>
      </g>
      <!-- teaching -->
      <g style="fill: #262626" transform="translate(111.224401 240.227) scale(0.11 -0.11)">
       <defs>
        <path id="ArialMT-74" d="M 1650 503 
L 1731 6 
Q 1494 -44 1306 -44 
Q 1000 -44 831 53 
Q 663 150 594 308 
Q 525 466 525 972 
L 525 2881 
L 113 2881 
L 113 3319 
L 525 3319 
L 525 4141 
L 1084 4478 
L 1084 3319 
L 1650 3319 
L 1650 2881 
L 1084 2881 
L 1084 941 
Q 1084 700 1114 631 
Q 1144 563 1211 522 
Q 1278 481 1403 481 
Q 1497 481 1650 503 
z
" transform="scale(0.015625)"/>
        <path id="ArialMT-68" d="M 422 0 
L 422 4581 
L 984 4581 
L 984 2938 
Q 1378 3394 1978 3394 
Q 2347 3394 2619 3248 
Q 2891 3103 3008 2847 
Q 3125 2591 3125 2103 
L 3125 0 
L 2563 0 
L 2563 2103 
Q 2563 2525 2380 2717 
Q 2197 2909 1863 2909 
Q 1613 2909 1392 2779 
Q 1172 2650 1078 2428 
Q 984 2206 984 1816 
L 984 0 
L 422 0 
z
" transform="scale(0.015625)"/>
        <path id="ArialMT-67" d="M 319 -275 
L 866 -356 
Q 900 -609 1056 -725 
Q 1266 -881 1628 -881 
Q 2019 -881 2231 -725 
Q 2444 -569 2519 -288 
Q 2563 -116 2559 434 
Q 2191 0 1641 0 
Q 956 0 581 494 
Q 206 988 206 1678 
Q 206 2153 378 2554 
Q 550 2956 876 3175 
Q 1203 3394 1644 3394 
Q 2231 3394 2613 2919 
L 2613 3319 
L 3131 3319 
L 3131 450 
Q 3131 -325 2973 -648 
Q 2816 -972 2473 -1159 
Q 2131 -1347 1631 -1347 
Q 1038 -1347 672 -1080 
Q 306 -813 319 -275 
z
M 784 1719 
Q 784 1066 1043 766 
Q 1303 466 1694 466 
Q 2081 466 2343 764 
Q 2606 1063 2606 1700 
Q 2606 2309 2336 2618 
Q 2066 2928 1684 2928 
Q 1309 2928 1046 2623 
Q 784 2319 784 1719 
z
" transform="scale(0.015625)"/>
       </defs>
       <use xlink:href="#ArialMT-74"/>
       <use xlink:href="#ArialMT-65" x="27.783203"/>
       <use xlink:href="#ArialMT-61" x="83.398438"/>
       <use xlink:href="#ArialMT-63" x="139.013672"/>
       <use xlink:href="#ArialMT-68" x="189.013672"/>
       <use xlink:href="#ArialMT-69" x="244.628906"/>
       <use xlink:href="#ArialMT-6e" x="266.845703"/>
       <use xlink:href="#ArialMT-67" x="322.460938"/>
      </g>
      <!-- workshops -->
      <g style="fill: #262626" transform="translate(105.729557 251.990469) scale(0.11 -0.11)">
       <defs>
        <path id="ArialMT-77" d="M 1034 0 
L 19 3319 
L 600 3319 
L 1128 1403 
L 1325 691 
Q 1338 744 1497 1375 
L 2025 3319 
L 2603 3319 
L 3100 1394 
L 3266 759 
L 3456 1400 
L 4025 3319 
L 4572 3319 
L 3534 0 
L 2950 0 
L 2422 1988 
L 2294 2553 
L 1622 0 
L 1034 0 
z
" transform="scale(0.015625)"/>
        <path id="ArialMT-6b" d="M 425 0 
L 425 4581 
L 988 4581 
L 988 1969 
L 2319 3319 
L 3047 3319 
L 1778 2088 
L 3175 0 
L 2481 0 
L 1384 1697 
L 988 1316 
L 988 0 
L 425 0 
z
" transform="scale(0.015625)"/>
       </defs>
       <use xlink:href="#ArialMT-77"/>
       <use xlink:href="#ArialMT-6f" x="72.216797"/>
       <use xlink:href="#ArialMT-72" x="127.832031"/>
       <use xlink:href="#ArialMT-6b" x="161.132812"/>
       <use xlink:href="#ArialMT-73" x="211.132812"/>
       <use xlink:href="#ArialMT-68" x="261.132812"/>
       <use xlink:href="#ArialMT-6f" x="316.748047"/>
       <use xlink:href="#ArialMT-70" x="372.363281"/>
       <use xlink:href="#ArialMT-73" x="427.978516"/>
      </g>
     </g>
    </g>
    <g id="xtick_3">
     <g id="text_3">
      <!-- open -->
      <g style="fill: #262626" transform="translate(176.484653 228.592437) scale(0.11 -0.11)">
       <use xlink:href="#ArialMT-6f"/>
       <use xlink:href="#ArialMT-70" x="55.615234"/>
       <use xlink:href="#ArialMT-65" x="111.230469"/>
       <use xlink:href="#ArialMT-6e" x="166.845703"/>
      </g>
      <!-- forum -->
      <g style="fill: #262626" transform="translate(174.661059 240.227) scale(0.11 -0.11)">
       <defs>
        <path id="ArialMT-66" d="M 556 0 
L 556 2881 
L 59 2881 
L 59 3319 
L 556 3319 
L 556 3672 
Q 556 4006 616 4169 
Q 697 4388 901 4523 
Q 1106 4659 1475 4659 
Q 1713 4659 2000 4603 
L 1916 4113 
Q 1741 4144 1584 4144 
Q 1328 4144 1222 4034 
Q 1116 3925 1116 3625 
L 1116 3319 
L 1763 3319 
L 1763 2881 
L 1116 2881 
L 1116 0 
L 556 0 
z
" transform="scale(0.015625)"/>
        <path id="ArialMT-75" d="M 2597 0 
L 2597 488 
Q 2209 -75 1544 -75 
Q 1250 -75 995 37 
Q 741 150 617 320 
Q 494 491 444 738 
Q 409 903 409 1263 
L 409 3319 
L 972 3319 
L 972 1478 
Q 972 1038 1006 884 
Q 1059 663 1231 536 
Q 1403 409 1656 409 
Q 1909 409 2131 539 
Q 2353 669 2445 892 
Q 2538 1116 2538 1541 
L 2538 3319 
L 3100 3319 
L 3100 0 
L 2597 0 
z
" transform="scale(0.015625)"/>
       </defs>
       <use xlink:href="#ArialMT-66"/>
       <use xlink:href="#ArialMT-6f" x="27.783203"/>
       <use xlink:href="#ArialMT-72" x="83.398438"/>
       <use xlink:href="#ArialMT-75" x="116.699219"/>
       <use xlink:href="#ArialMT-6d" x="172.314453"/>
      </g>
     </g>
    </g>
    <g id="xtick_4">
     <g id="text_4">
      <!-- in-person -->
      <g style="fill: #262626" transform="translate(222.493186 228.592437) scale(0.11 -0.11)">
       <use xlink:href="#ArialMT-69"/>
       <use xlink:href="#ArialMT-6e" x="22.216797"/>
       <use xlink:href="#ArialMT-2d" x="77.832031"/>
       <use xlink:href="#ArialMT-70" x="111.132812"/>
       <use xlink:href="#ArialMT-65" x="166.748047"/>
       <use xlink:href="#ArialMT-72" x="222.363281"/>
       <use xlink:href="#ArialMT-73" x="255.664062"/>
       <use xlink:href="#ArialMT-6f" x="305.664062"/>
       <use xlink:href="#ArialMT-6e" x="361.279297"/>
      </g>
      <!-- software -->
      <g style="fill: #262626" transform="translate(224.635608 240.227) scale(0.11 -0.11)">
       <use xlink:href="#ArialMT-73"/>
       <use xlink:href="#ArialMT-6f" x="50"/>
       <use xlink:href="#ArialMT-66" x="105.615234"/>
       <use xlink:href="#ArialMT-74" x="133.398438"/>
       <use xlink:href="#ArialMT-77" x="161.181641"/>
       <use xlink:href="#ArialMT-61" x="233.398438"/>
       <use xlink:href="#ArialMT-72" x="289.013672"/>
       <use xlink:href="#ArialMT-65" x="322.314453"/>
      </g>
      <!-- workshops -->
      <g style="fill: #262626" transform="translate(219.13303 251.861562) scale(0.11 -0.11)">
       <use xlink:href="#ArialMT-77"/>
       <use xlink:href="#ArialMT-6f" x="72.216797"/>
       <use xlink:href="#ArialMT-72" x="127.832031"/>
       <use xlink:href="#ArialMT-6b" x="161.132812"/>
       <use xlink:href="#ArialMT-73" x="211.132812"/>
       <use xlink:href="#ArialMT-68" x="261.132812"/>
       <use xlink:href="#ArialMT-6f" x="316.748047"/>
       <use xlink:href="#ArialMT-70" x="372.363281"/>
       <use xlink:href="#ArialMT-73" x="427.978516"/>
      </g>
     </g>
    </g>
    <g id="xtick_5">
     <g id="text_5">
      <!-- introductory -->
      <g style="fill: #262626" transform="translate(273.388984 228.592437) scale(0.11 -0.11)">
       <use xlink:href="#ArialMT-69"/>
       <use xlink:href="#ArialMT-6e" x="22.216797"/>
       <use xlink:href="#ArialMT-74" x="77.832031"/>
       <use xlink:href="#ArialMT-72" x="105.615234"/>
       <use xlink:href="#ArialMT-6f" x="138.916016"/>
       <use xlink:href="#ArialMT-64" x="194.53125"/>
       <use xlink:href="#ArialMT-75" x="250.146484"/>
       <use xlink:href="#ArialMT-63" x="305.761719"/>
       <use xlink:href="#ArialMT-74" x="355.761719"/>
       <use xlink:href="#ArialMT-6f" x="383.544922"/>
       <use xlink:href="#ArialMT-72" x="439.160156"/>
       <use xlink:href="#ArialMT-79" x="472.460938"/>
      </g>
      <!-- materials -->
      <g style="fill: #262626" transform="translate(279.811953 240.355906) scale(0.11 -0.11)">
       <use xlink:href="#ArialMT-6d"/>
       <use xlink:href="#ArialMT-61" x="83.300781"/>
       <use xlink:href="#ArialMT-74" x="138.916016"/>
       <use xlink:href="#ArialMT-65" x="166.699219"/>
       <use xlink:href="#ArialMT-72" x="222.314453"/>
       <use xlink:href="#ArialMT-69" x="255.615234"/>
       <use xlink:href="#ArialMT-61" x="277.832031"/>
       <use xlink:href="#ArialMT-6c" x="333.447266"/>
       <use xlink:href="#ArialMT-73" x="355.664062"/>
      </g>
     </g>
    </g>
    <g id="xtick_6">
     <g id="text_6">
      <!-- online -->
      <g style="fill: #262626" transform="translate(344.145799 228.592437) scale(0.11 -0.11)">
       <use xlink:href="#ArialMT-6f"/>
       <use xlink:href="#ArialMT-6e" x="55.615234"/>
       <use xlink:href="#ArialMT-6c" x="111.230469"/>
       <use xlink:href="#ArialMT-69" x="133.447266"/>
       <use xlink:href="#ArialMT-6e" x="155.664062"/>
       <use xlink:href="#ArialMT-65" x="211.279297"/>
      </g>
      <!-- data -->
      <g style="fill: #262626" transform="translate(348.120408 240.227) scale(0.11 -0.11)">
       <use xlink:href="#ArialMT-64"/>
       <use xlink:href="#ArialMT-61" x="55.615234"/>
       <use xlink:href="#ArialMT-74" x="111.230469"/>
       <use xlink:href="#ArialMT-61" x="139.013672"/>
      </g>
      <!-- management -->
      <g style="fill: #262626" transform="translate(326.723689 251.861562) scale(0.11 -0.11)">
       <use xlink:href="#ArialMT-6d"/>
       <use xlink:href="#ArialMT-61" x="83.300781"/>
       <use xlink:href="#ArialMT-6e" x="138.916016"/>
       <use xlink:href="#ArialMT-61" x="194.53125"/>
       <use xlink:href="#ArialMT-67" x="250.146484"/>
       <use xlink:href="#ArialMT-65" x="305.761719"/>
       <use xlink:href="#ArialMT-6d" x="361.376953"/>
       <use xlink:href="#ArialMT-65" x="444.677734"/>
       <use xlink:href="#ArialMT-6e" x="500.292969"/>
       <use xlink:href="#ArialMT-74" x="555.908203"/>
      </g>
     </g>
    </g>
    <g id="xtick_7">
     <g id="text_7">
      <!-- seminars -->
      <g style="fill: #262626" transform="translate(393.215425 228.592437) scale(0.11 -0.11)">
       <use xlink:href="#ArialMT-73"/>
       <use xlink:href="#ArialMT-65" x="50"/>
       <use xlink:href="#ArialMT-6d" x="105.615234"/>
       <use xlink:href="#ArialMT-69" x="188.916016"/>
       <use xlink:href="#ArialMT-6e" x="211.132812"/>
       <use xlink:href="#ArialMT-61" x="266.748047"/>
       <use xlink:href="#ArialMT-72" x="322.363281"/>
       <use xlink:href="#ArialMT-73" x="355.664062"/>
      </g>
      <!-- on data and -->
      <g style="fill: #262626" transform="translate(386.473628 240.227) scale(0.11 -0.11)">
       <defs>
        <path id="ArialMT-20" transform="scale(0.015625)"/>
       </defs>
       <use xlink:href="#ArialMT-6f"/>
       <use xlink:href="#ArialMT-6e" x="55.615234"/>
       <use xlink:href="#ArialMT-20" x="111.230469"/>
       <use xlink:href="#ArialMT-64" x="139.013672"/>
       <use xlink:href="#ArialMT-61" x="194.628906"/>
       <use xlink:href="#ArialMT-74" x="250.244141"/>
       <use xlink:href="#ArialMT-61" x="278.027344"/>
       <use xlink:href="#ArialMT-20" x="333.642578"/>
       <use xlink:href="#ArialMT-61" x="361.425781"/>
       <use xlink:href="#ArialMT-6e" x="417.041016"/>
       <use xlink:href="#ArialMT-64" x="472.65625"/>
      </g>
      <!--  questions -->
      <g style="fill: #262626" transform="translate(390.455113 251.861562) scale(0.11 -0.11)">
       <defs>
        <path id="ArialMT-71" d="M 2538 -1272 
L 2538 353 
Q 2406 169 2170 47 
Q 1934 -75 1669 -75 
Q 1078 -75 651 397 
Q 225 869 225 1691 
Q 225 2191 398 2587 
Q 572 2984 901 3189 
Q 1231 3394 1625 3394 
Q 2241 3394 2594 2875 
L 2594 3319 
L 3100 3319 
L 3100 -1272 
L 2538 -1272 
z
M 803 1669 
Q 803 1028 1072 708 
Q 1341 388 1716 388 
Q 2075 388 2334 692 
Q 2594 997 2594 1619 
Q 2594 2281 2320 2615 
Q 2047 2950 1678 2950 
Q 1313 2950 1058 2639 
Q 803 2328 803 1669 
z
" transform="scale(0.015625)"/>
       </defs>
       <use xlink:href="#ArialMT-20"/>
       <use xlink:href="#ArialMT-71" x="27.783203"/>
       <use xlink:href="#ArialMT-75" x="83.398438"/>
       <use xlink:href="#ArialMT-65" x="139.013672"/>
       <use xlink:href="#ArialMT-73" x="194.628906"/>
       <use xlink:href="#ArialMT-74" x="244.628906"/>
       <use xlink:href="#ArialMT-69" x="272.412109"/>
       <use xlink:href="#ArialMT-6f" x="294.628906"/>
       <use xlink:href="#ArialMT-6e" x="350.244141"/>
       <use xlink:href="#ArialMT-73" x="405.859375"/>
      </g>
     </g>
    </g>
    <g id="xtick_8">
     <g id="text_8">
      <!-- online -->
      <g style="fill: #262626" transform="translate(457.549271 228.592437) scale(0.11 -0.11)">
       <use xlink:href="#ArialMT-6f"/>
       <use xlink:href="#ArialMT-6e" x="55.615234"/>
       <use xlink:href="#ArialMT-6c" x="111.230469"/>
       <use xlink:href="#ArialMT-69" x="133.447266"/>
       <use xlink:href="#ArialMT-6e" x="155.664062"/>
       <use xlink:href="#ArialMT-65" x="211.279297"/>
      </g>
      <!-- analysis -->
      <g style="fill: #262626" transform="translate(452.357786 240.227) scale(0.11 -0.11)">
       <use xlink:href="#ArialMT-61"/>
       <use xlink:href="#ArialMT-6e" x="55.615234"/>
       <use xlink:href="#ArialMT-61" x="111.230469"/>
       <use xlink:href="#ArialMT-6c" x="166.845703"/>
       <use xlink:href="#ArialMT-79" x="189.0625"/>
       <use xlink:href="#ArialMT-73" x="239.0625"/>
       <use xlink:href="#ArialMT-69" x="289.0625"/>
       <use xlink:href="#ArialMT-73" x="311.279297"/>
      </g>
      <!-- tools -->
      <g style="fill: #262626" transform="translate(460.610365 251.990469) scale(0.11 -0.11)">
       <use xlink:href="#ArialMT-74"/>
       <use xlink:href="#ArialMT-6f" x="27.783203"/>
       <use xlink:href="#ArialMT-6f" x="83.398438"/>
       <use xlink:href="#ArialMT-6c" x="139.013672"/>
       <use xlink:href="#ArialMT-73" x="161.230469"/>
      </g>
     </g>
    </g>
    <g id="xtick_9">
     <g id="text_9">
      <!-- publishing -->
      <g style="fill: #262626" transform="translate(504.161944 228.592437) scale(0.11 -0.11)">
       <defs>
        <path id="ArialMT-62" d="M 941 0 
L 419 0 
L 419 4581 
L 981 4581 
L 981 2947 
Q 1338 3394 1891 3394 
Q 2197 3394 2470 3270 
Q 2744 3147 2920 2923 
Q 3097 2700 3197 2384 
Q 3297 2069 3297 1709 
Q 3297 856 2875 390 
Q 2453 -75 1863 -75 
Q 1275 -75 941 416 
L 941 0 
z
M 934 1684 
Q 934 1088 1097 822 
Q 1363 388 1816 388 
Q 2184 388 2453 708 
Q 2722 1028 2722 1663 
Q 2722 2313 2464 2622 
Q 2206 2931 1841 2931 
Q 1472 2931 1203 2611 
Q 934 2291 934 1684 
z
" transform="scale(0.015625)"/>
       </defs>
       <use xlink:href="#ArialMT-70"/>
       <use xlink:href="#ArialMT-75" x="55.615234"/>
       <use xlink:href="#ArialMT-62" x="111.230469"/>
       <use xlink:href="#ArialMT-6c" x="166.845703"/>
       <use xlink:href="#ArialMT-69" x="189.0625"/>
       <use xlink:href="#ArialMT-73" x="211.279297"/>
       <use xlink:href="#ArialMT-68" x="261.279297"/>
       <use xlink:href="#ArialMT-69" x="316.894531"/>
       <use xlink:href="#ArialMT-6e" x="339.111328"/>
       <use xlink:href="#ArialMT-67" x="394.726562"/>
      </g>
      <!-- training -->
      <g style="fill: #262626" transform="translate(510.89171 240.355906) scale(0.11 -0.11)">
       <use xlink:href="#ArialMT-74"/>
       <use xlink:href="#ArialMT-72" x="27.783203"/>
       <use xlink:href="#ArialMT-61" x="61.083984"/>
       <use xlink:href="#ArialMT-69" x="116.699219"/>
       <use xlink:href="#ArialMT-6e" x="138.916016"/>
       <use xlink:href="#ArialMT-69" x="194.53125"/>
       <use xlink:href="#ArialMT-6e" x="216.748047"/>
       <use xlink:href="#ArialMT-67" x="272.363281"/>
      </g>
      <!-- materials -->
      <g style="fill: #262626" transform="translate(506.618898 252.119375) scale(0.11 -0.11)">
       <use xlink:href="#ArialMT-6d"/>
       <use xlink:href="#ArialMT-61" x="83.300781"/>
       <use xlink:href="#ArialMT-74" x="138.916016"/>
       <use xlink:href="#ArialMT-65" x="166.699219"/>
       <use xlink:href="#ArialMT-72" x="222.314453"/>
       <use xlink:href="#ArialMT-69" x="255.615234"/>
       <use xlink:href="#ArialMT-61" x="277.832031"/>
       <use xlink:href="#ArialMT-6c" x="333.447266"/>
       <use xlink:href="#ArialMT-73" x="355.664062"/>
      </g>
     </g>
    </g>
    <g id="text_10">
     <!-- Interest -->
     <g style="fill: #262626" transform="translate(282.114062 266.895) scale(0.12 -0.12)">
      <defs>
       <path id="ArialMT-49" d="M 597 0 
L 597 4581 
L 1203 4581 
L 1203 0 
L 597 0 
z
" transform="scale(0.015625)"/>
      </defs>
      <use xlink:href="#ArialMT-49"/>
      <use xlink:href="#ArialMT-6e" x="27.783203"/>
      <use xlink:href="#ArialMT-74" x="83.398438"/>
      <use xlink:href="#ArialMT-65" x="111.181641"/>
      <use xlink:href="#ArialMT-72" x="166.796875"/>
      <use xlink:href="#ArialMT-65" x="200.097656"/>
      <use xlink:href="#ArialMT-73" x="255.712891"/>
      <use xlink:href="#ArialMT-74" x="305.712891"/>
     </g>
    </g>
   </g>
   <g id="matplotlib.axis_2">
    <g id="ytick_1">
     <g id="line2d_1">
      <path d="M 46.964375 211.218844 
L 557.28 211.218844 
" clip-path="url(#p5bba481e64)" style="fill: none; stroke: #ffffff; stroke-linecap: round"/>
     </g>
     <g id="text_11">
      <!-- 0.0 -->
      <g style="fill: #262626" transform="translate(22.174375 215.155641) scale(0.11 -0.11)">
       <defs>
        <path id="ArialMT-30" d="M 266 2259 
Q 266 3072 433 3567 
Q 600 4063 929 4331 
Q 1259 4600 1759 4600 
Q 2128 4600 2406 4451 
Q 2684 4303 2865 4023 
Q 3047 3744 3150 3342 
Q 3253 2941 3253 2259 
Q 3253 1453 3087 958 
Q 2922 463 2592 192 
Q 2263 -78 1759 -78 
Q 1097 -78 719 397 
Q 266 969 266 2259 
z
M 844 2259 
Q 844 1131 1108 757 
Q 1372 384 1759 384 
Q 2147 384 2411 759 
Q 2675 1134 2675 2259 
Q 2675 3391 2411 3762 
Q 2147 4134 1753 4134 
Q 1366 4134 1134 3806 
Q 844 3388 844 2259 
z
" transform="scale(0.015625)"/>
        <path id="ArialMT-2e" d="M 581 0 
L 581 641 
L 1222 641 
L 1222 0 
L 581 0 
z
" transform="scale(0.015625)"/>
       </defs>
       <use xlink:href="#ArialMT-30"/>
       <use xlink:href="#ArialMT-2e" x="55.615234"/>
       <use xlink:href="#ArialMT-30" x="83.398438"/>
      </g>
     </g>
    </g>
    <g id="ytick_2">
     <g id="line2d_2">
      <path d="M 46.964375 172.358112 
L 557.28 172.358112 
" clip-path="url(#p5bba481e64)" style="fill: none; stroke: #ffffff; stroke-linecap: round"/>
     </g>
     <g id="text_12">
      <!-- 0.2 -->
      <g style="fill: #262626" transform="translate(22.174375 176.294908) scale(0.11 -0.11)">
       <defs>
        <path id="ArialMT-32" d="M 3222 541 
L 3222 0 
L 194 0 
Q 188 203 259 391 
Q 375 700 629 1000 
Q 884 1300 1366 1694 
Q 2113 2306 2375 2664 
Q 2638 3022 2638 3341 
Q 2638 3675 2398 3904 
Q 2159 4134 1775 4134 
Q 1369 4134 1125 3890 
Q 881 3647 878 3216 
L 300 3275 
Q 359 3922 746 4261 
Q 1134 4600 1788 4600 
Q 2447 4600 2831 4234 
Q 3216 3869 3216 3328 
Q 3216 3053 3103 2787 
Q 2991 2522 2730 2228 
Q 2469 1934 1863 1422 
Q 1356 997 1212 845 
Q 1069 694 975 541 
L 3222 541 
z
" transform="scale(0.015625)"/>
       </defs>
       <use xlink:href="#ArialMT-30"/>
       <use xlink:href="#ArialMT-2e" x="55.615234"/>
       <use xlink:href="#ArialMT-32" x="83.398438"/>
      </g>
     </g>
    </g>
    <g id="ytick_3">
     <g id="line2d_3">
      <path d="M 46.964375 133.497379 
L 557.28 133.497379 
" clip-path="url(#p5bba481e64)" style="fill: none; stroke: #ffffff; stroke-linecap: round"/>
     </g>
     <g id="text_13">
      <!-- 0.4 -->
      <g style="fill: #262626" transform="translate(22.174375 137.434176) scale(0.11 -0.11)">
       <defs>
        <path id="ArialMT-34" d="M 2069 0 
L 2069 1097 
L 81 1097 
L 81 1613 
L 2172 4581 
L 2631 4581 
L 2631 1613 
L 3250 1613 
L 3250 1097 
L 2631 1097 
L 2631 0 
L 2069 0 
z
M 2069 1613 
L 2069 3678 
L 634 1613 
L 2069 1613 
z
" transform="scale(0.015625)"/>
       </defs>
       <use xlink:href="#ArialMT-30"/>
       <use xlink:href="#ArialMT-2e" x="55.615234"/>
       <use xlink:href="#ArialMT-34" x="83.398438"/>
      </g>
     </g>
    </g>
    <g id="ytick_4">
     <g id="line2d_4">
      <path d="M 46.964375 94.636647 
L 557.28 94.636647 
" clip-path="url(#p5bba481e64)" style="fill: none; stroke: #ffffff; stroke-linecap: round"/>
     </g>
     <g id="text_14">
      <!-- 0.6 -->
      <g style="fill: #262626" transform="translate(22.174375 98.573444) scale(0.11 -0.11)">
       <defs>
        <path id="ArialMT-36" d="M 3184 3459 
L 2625 3416 
Q 2550 3747 2413 3897 
Q 2184 4138 1850 4138 
Q 1581 4138 1378 3988 
Q 1113 3794 959 3422 
Q 806 3050 800 2363 
Q 1003 2672 1297 2822 
Q 1591 2972 1913 2972 
Q 2475 2972 2870 2558 
Q 3266 2144 3266 1488 
Q 3266 1056 3080 686 
Q 2894 316 2569 119 
Q 2244 -78 1831 -78 
Q 1128 -78 684 439 
Q 241 956 241 2144 
Q 241 3472 731 4075 
Q 1159 4600 1884 4600 
Q 2425 4600 2770 4297 
Q 3116 3994 3184 3459 
z
M 888 1484 
Q 888 1194 1011 928 
Q 1134 663 1356 523 
Q 1578 384 1822 384 
Q 2178 384 2434 671 
Q 2691 959 2691 1453 
Q 2691 1928 2437 2201 
Q 2184 2475 1800 2475 
Q 1419 2475 1153 2201 
Q 888 1928 888 1484 
z
" transform="scale(0.015625)"/>
       </defs>
       <use xlink:href="#ArialMT-30"/>
       <use xlink:href="#ArialMT-2e" x="55.615234"/>
       <use xlink:href="#ArialMT-36" x="83.398438"/>
      </g>
     </g>
    </g>
    <g id="ytick_5">
     <g id="line2d_5">
      <path d="M 46.964375 55.775915 
L 557.28 55.775915 
" clip-path="url(#p5bba481e64)" style="fill: none; stroke: #ffffff; stroke-linecap: round"/>
     </g>
     <g id="text_15">
      <!-- 0.8 -->
      <g style="fill: #262626" transform="translate(22.174375 59.712712) scale(0.11 -0.11)">
       <defs>
        <path id="ArialMT-38" d="M 1131 2484 
Q 781 2613 612 2850 
Q 444 3088 444 3419 
Q 444 3919 803 4259 
Q 1163 4600 1759 4600 
Q 2359 4600 2725 4251 
Q 3091 3903 3091 3403 
Q 3091 3084 2923 2848 
Q 2756 2613 2416 2484 
Q 2838 2347 3058 2040 
Q 3278 1734 3278 1309 
Q 3278 722 2862 322 
Q 2447 -78 1769 -78 
Q 1091 -78 675 323 
Q 259 725 259 1325 
Q 259 1772 486 2073 
Q 713 2375 1131 2484 
z
M 1019 3438 
Q 1019 3113 1228 2906 
Q 1438 2700 1772 2700 
Q 2097 2700 2305 2904 
Q 2513 3109 2513 3406 
Q 2513 3716 2298 3927 
Q 2084 4138 1766 4138 
Q 1444 4138 1231 3931 
Q 1019 3725 1019 3438 
z
M 838 1322 
Q 838 1081 952 856 
Q 1066 631 1291 507 
Q 1516 384 1775 384 
Q 2178 384 2440 643 
Q 2703 903 2703 1303 
Q 2703 1709 2433 1975 
Q 2163 2241 1756 2241 
Q 1359 2241 1098 1978 
Q 838 1716 838 1322 
z
" transform="scale(0.015625)"/>
       </defs>
       <use xlink:href="#ArialMT-30"/>
       <use xlink:href="#ArialMT-2e" x="55.615234"/>
       <use xlink:href="#ArialMT-38" x="83.398438"/>
      </g>
     </g>
    </g>
    <g id="ytick_6">
     <g id="line2d_6">
      <path d="M 46.964375 16.915183 
L 557.28 16.915183 
" clip-path="url(#p5bba481e64)" style="fill: none; stroke: #ffffff; stroke-linecap: round"/>
     </g>
     <g id="text_16">
      <!-- 1.0 -->
      <g style="fill: #262626" transform="translate(22.174375 20.85198) scale(0.11 -0.11)">
       <defs>
        <path id="ArialMT-31" d="M 2384 0 
L 1822 0 
L 1822 3584 
Q 1619 3391 1289 3197 
Q 959 3003 697 2906 
L 697 3450 
Q 1169 3672 1522 3987 
Q 1875 4303 2022 4600 
L 2384 4600 
L 2384 0 
z
" transform="scale(0.015625)"/>
       </defs>
       <use xlink:href="#ArialMT-31"/>
       <use xlink:href="#ArialMT-2e" x="55.615234"/>
       <use xlink:href="#ArialMT-30" x="83.398438"/>
      </g>
     </g>
    </g>
    <g id="text_17">
     <!-- Fraction of answers -->
     <g style="fill: #262626" transform="translate(15.789375 161.559422) rotate(-90) scale(0.12 -0.12)">
      <defs>
       <path id="ArialMT-46" d="M 525 0 
L 525 4581 
L 3616 4581 
L 3616 4041 
L 1131 4041 
L 1131 2622 
L 3281 2622 
L 3281 2081 
L 1131 2081 
L 1131 0 
L 525 0 
z
" transform="scale(0.015625)"/>
      </defs>
      <use xlink:href="#ArialMT-46"/>
      <use xlink:href="#ArialMT-72" x="61.083984"/>
      <use xlink:href="#ArialMT-61" x="94.384766"/>
      <use xlink:href="#ArialMT-63" x="150"/>
      <use xlink:href="#ArialMT-74" x="200"/>
      <use xlink:href="#ArialMT-69" x="227.783203"/>
      <use xlink:href="#ArialMT-6f" x="250"/>
      <use xlink:href="#ArialMT-6e" x="305.615234"/>
      <use xlink:href="#ArialMT-20" x="361.230469"/>
      <use xlink:href="#ArialMT-6f" x="389.013672"/>
      <use xlink:href="#ArialMT-66" x="444.628906"/>
      <use xlink:href="#ArialMT-20" x="472.412109"/>
      <use xlink:href="#ArialMT-61" x="500.195312"/>
      <use xlink:href="#ArialMT-6e" x="555.810547"/>
      <use xlink:href="#ArialMT-73" x="611.425781"/>
      <use xlink:href="#ArialMT-77" x="661.425781"/>
      <use xlink:href="#ArialMT-65" x="733.642578"/>
      <use xlink:href="#ArialMT-72" x="789.257812"/>
      <use xlink:href="#ArialMT-73" x="822.558594"/>
     </g>
    </g>
   </g>
   <g id="patch_3">
    <path d="M 52.634549 211.218844 
L 97.995937 211.218844 
L 97.995937 170.68067 
L 52.634549 170.68067 
z
" clip-path="url(#p03dcd08b5e)" style="fill: #4c72b0; fill-opacity: 0.7; stroke: #4c72b0; stroke-width: 2; stroke-linejoin: miter"/>
   </g>
   <g id="patch_4">
    <path d="M 52.634549 170.68067 
L 97.995937 170.68067 
L 97.995937 63.743763 
L 52.634549 63.743763 
z
" clip-path="url(#pd66ef6d50f)" style="fill: #dd8452; fill-opacity: 0.7; stroke: #dd8452; stroke-width: 2; stroke-linejoin: miter"/>
   </g>
   <g id="patch_5">
    <path d="M 52.634549 63.743763 
L 97.995937 63.743763 
L 97.995937 16.915183 
L 52.634549 16.915183 
z
" clip-path="url(#pad6ca3af5f)" style="fill: #55a868; fill-opacity: 0.7; stroke: #55a868; stroke-width: 2; stroke-linejoin: miter"/>
   </g>
   <g id="patch_6">
    <path d="M 109.336285 211.218844 
L 154.697674 211.218844 
L 154.697674 132.790821 
L 109.336285 132.790821 
z
" clip-path="url(#p51bce9dbc1)" style="fill: #4c72b0; fill-opacity: 0.7; stroke: #4c72b0; stroke-width: 2; stroke-linejoin: miter"/>
   </g>
   <g id="patch_7">
    <path d="M 109.336285 132.790821 
L 154.697674 132.790821 
L 154.697674 47.29721 
L 109.336285 47.29721 
z
" clip-path="url(#p86f34aedd9)" style="fill: #dd8452; fill-opacity: 0.7; stroke: #dd8452; stroke-width: 2; stroke-linejoin: miter"/>
   </g>
   <g id="patch_8">
    <path d="M 109.336285 47.29721 
L 154.697674 47.29721 
L 154.697674 16.915183 
L 109.336285 16.915183 
z
" clip-path="url(#p214fdd647e)" style="fill: #55a868; fill-opacity: 0.7; stroke: #55a868; stroke-width: 2; stroke-linejoin: miter"/>
   </g>
   <g id="patch_9">
    <path d="M 166.038021 211.218844 
L 211.39941 211.218844 
L 211.39941 130.487041 
L 166.038021 130.487041 
z
" clip-path="url(#p45f32b1a0e)" style="fill: #4c72b0; fill-opacity: 0.7; stroke: #4c72b0; stroke-width: 2; stroke-linejoin: miter"/>
   </g>
   <g id="patch_10">
    <path d="M 166.038021 130.487041 
L 211.39941 130.487041 
L 211.39941 38.124385 
L 166.038021 38.124385 
z
" clip-path="url(#pfacba1aefb)" style="fill: #dd8452; fill-opacity: 0.7; stroke: #dd8452; stroke-width: 2; stroke-linejoin: miter"/>
   </g>
   <g id="patch_11">
    <path d="M 166.038021 38.124385 
L 211.39941 38.124385 
L 211.39941 16.915183 
L 166.038021 16.915183 
z
" clip-path="url(#pdb3b37178c)" style="fill: #55a868; fill-opacity: 0.7; stroke: #55a868; stroke-width: 2; stroke-linejoin: miter"/>
   </g>
   <g id="patch_12">
    <path d="M 222.739757 211.218844 
L 268.101146 211.218844 
L 268.101146 117.87011 
L 222.739757 117.87011 
z
" clip-path="url(#p1d40645588)" style="fill: #4c72b0; fill-opacity: 0.7; stroke: #4c72b0; stroke-width: 2; stroke-linejoin: miter"/>
   </g>
   <g id="patch_13">
    <path d="M 222.739757 117.87011 
L 268.101146 117.87011 
L 268.101146 30.744625 
L 222.739757 30.744625 
z
" clip-path="url(#p1bccc1a110)" style="fill: #dd8452; fill-opacity: 0.7; stroke: #dd8452; stroke-width: 2; stroke-linejoin: miter"/>
   </g>
   <g id="patch_14">
    <path d="M 222.739757 30.744625 
L 268.101146 30.744625 
L 268.101146 16.915183 
L 222.739757 16.915183 
z
" clip-path="url(#p06ab468a4b)" style="fill: #55a868; fill-opacity: 0.7; stroke: #55a868; stroke-width: 2; stroke-linejoin: miter"/>
   </g>
   <g id="patch_15">
    <path d="M 279.441493 211.218844 
L 324.802882 211.218844 
L 324.802882 122.961195 
L 279.441493 122.961195 
z
" clip-path="url(#p26fc7c8d1e)" style="fill: #4c72b0; fill-opacity: 0.7; stroke: #4c72b0; stroke-width: 2; stroke-linejoin: miter"/>
   </g>
   <g id="patch_16">
    <path d="M 279.441493 122.961195 
L 324.802882 122.961195 
L 324.802882 39.492721 
L 279.441493 39.492721 
z
" clip-path="url(#p335d9da828)" style="fill: #dd8452; fill-opacity: 0.7; stroke: #dd8452; stroke-width: 2; stroke-linejoin: miter"/>
   </g>
   <g id="patch_17">
    <path d="M 279.441493 39.492721 
L 324.802882 39.492721 
L 324.802882 16.915183 
L 279.441493 16.915183 
z
" clip-path="url(#pcfb67cc306)" style="fill: #55a868; fill-opacity: 0.7; stroke: #55a868; stroke-width: 2; stroke-linejoin: miter"/>
   </g>
   <g id="patch_18">
    <path d="M 336.143229 211.218844 
L 381.504618 211.218844 
L 381.504618 119.902989 
L 336.143229 119.902989 
z
" clip-path="url(#pc417cd98ae)" style="fill: #4c72b0; fill-opacity: 0.7; stroke: #4c72b0; stroke-width: 2; stroke-linejoin: miter"/>
   </g>
   <g id="patch_19">
    <path d="M 336.143229 119.902989 
L 381.504618 119.902989 
L 381.504618 33.393232 
L 336.143229 33.393232 
z
" clip-path="url(#pe130985370)" style="fill: #dd8452; fill-opacity: 0.7; stroke: #dd8452; stroke-width: 2; stroke-linejoin: miter"/>
   </g>
   <g id="patch_20">
    <path d="M 336.143229 33.393232 
L 381.504618 33.393232 
L 381.504618 16.915183 
L 336.143229 16.915183 
z
" clip-path="url(#p434f7ff9ab)" style="fill: #55a868; fill-opacity: 0.7; stroke: #55a868; stroke-width: 2; stroke-linejoin: miter"/>
   </g>
   <g id="patch_21">
    <path d="M 392.844965 211.218844 
L 438.206354 211.218844 
L 438.206354 124.402314 
L 392.844965 124.402314 
z
" clip-path="url(#p929555a33c)" style="fill: #4c72b0; fill-opacity: 0.7; stroke: #4c72b0; stroke-width: 2; stroke-linejoin: miter"/>
   </g>
   <g id="patch_22">
    <path d="M 392.844965 124.402314 
L 438.206354 124.402314 
L 438.206354 30.006564 
L 392.844965 30.006564 
z
" clip-path="url(#p57b463e579)" style="fill: #dd8452; fill-opacity: 0.7; stroke: #dd8452; stroke-width: 2; stroke-linejoin: miter"/>
   </g>
   <g id="patch_23">
    <path d="M 392.844965 30.006564 
L 438.206354 30.006564 
L 438.206354 16.915183 
L 392.844965 16.915183 
z
" clip-path="url(#pd429ef0d1f)" style="fill: #55a868; fill-opacity: 0.7; stroke: #55a868; stroke-width: 2; stroke-linejoin: miter"/>
   </g>
   <g id="patch_24">
    <path d="M 449.546701 211.218844 
L 494.90809 211.218844 
L 494.90809 79.637768 
L 449.546701 79.637768 
z
" clip-path="url(#p4490892f07)" style="fill: #4c72b0; fill-opacity: 0.7; stroke: #4c72b0; stroke-width: 2; stroke-linejoin: miter"/>
   </g>
   <g id="patch_25">
    <path d="M 449.546701 79.637768 
L 494.90809 79.637768 
L 494.90809 23.051088 
L 449.546701 23.051088 
z
" clip-path="url(#p8575cffca1)" style="fill: #dd8452; fill-opacity: 0.7; stroke: #dd8452; stroke-width: 2; stroke-linejoin: miter"/>
   </g>
   <g id="patch_26">
    <path d="M 449.546701 23.051088 
L 494.90809 23.051088 
L 494.90809 16.915183 
L 449.546701 16.915183 
z
" clip-path="url(#pbc4dc041e5)" style="fill: #55a868; fill-opacity: 0.7; stroke: #55a868; stroke-width: 2; stroke-linejoin: miter"/>
   </g>
   <g id="patch_27">
    <path d="M 506.248437 211.218844 
L 551.609826 211.218844 
L 551.609826 129.515184 
L 506.248437 129.515184 
z
" clip-path="url(#p653bd128f3)" style="fill: #4c72b0; fill-opacity: 0.7; stroke: #4c72b0; stroke-width: 2; stroke-linejoin: miter"/>
   </g>
   <g id="patch_28">
    <path d="M 506.248437 129.515184 
L 551.609826 129.515184 
L 551.609826 45.065183 
L 506.248437 45.065183 
z
" clip-path="url(#pca23501918)" style="fill: #dd8452; fill-opacity: 0.7; stroke: #dd8452; stroke-width: 2; stroke-linejoin: miter"/>
   </g>
   <g id="patch_29">
    <path d="M 506.248437 45.065183 
L 551.609826 45.065183 
L 551.609826 16.915183 
L 506.248437 16.915183 
z
" clip-path="url(#p9d7903925b)" style="fill: #55a868; fill-opacity: 0.7; stroke: #55a868; stroke-width: 2; stroke-linejoin: miter"/>
   </g>
   <g id="patch_30">
    <path d="M 46.964375 211.218844 
L 46.964375 7.2 
" style="fill: none; stroke: #ffffff; stroke-width: 1.25; stroke-linejoin: miter; stroke-linecap: square"/>
   </g>
   <g id="patch_31">
    <path d="M 557.28 211.218844 
L 557.28 7.2 
" style="fill: none; stroke: #ffffff; stroke-width: 1.25; stroke-linejoin: miter; stroke-linecap: square"/>
   </g>
   <g id="patch_32">
    <path d="M 46.964375 211.218844 
L 557.28 211.218844 
" style="fill: none; stroke: #ffffff; stroke-width: 1.25; stroke-linejoin: miter; stroke-linecap: square"/>
   </g>
   <g id="patch_33">
    <path d="M 46.964375 7.2 
L 557.28 7.2 
" style="fill: none; stroke: #ffffff; stroke-width: 1.25; stroke-linejoin: miter; stroke-linecap: square"/>
   </g>
  </g>
  <g id="legend_1">
   <g id="patch_34">
    <path d="M 572.18 151.502891 
L 754.742188 151.502891 
Q 756.942188 151.502891 756.942188 149.302891 
L 756.942188 86.857109 
Q 756.942188 84.657109 754.742188 84.657109 
L 572.18 84.657109 
Q 569.98 84.657109 569.98 86.857109 
L 569.98 149.302891 
Q 569.98 151.502891 572.18 151.502891 
z
" style="fill: #eaeaf2; opacity: 0.8; stroke: #cccccc; stroke-linejoin: miter"/>
   </g>
   <g id="text_18">
    <!-- percent -->
    <g transform="translate(643.450156 97.646484) scale(0.12 -0.12)">
     <use xlink:href="#ArialMT-70"/>
     <use xlink:href="#ArialMT-65" x="55.615234"/>
     <use xlink:href="#ArialMT-72" x="111.230469"/>
     <use xlink:href="#ArialMT-63" x="144.53125"/>
     <use xlink:href="#ArialMT-65" x="194.53125"/>
     <use xlink:href="#ArialMT-6e" x="250.146484"/>
     <use xlink:href="#ArialMT-74" x="305.761719"/>
    </g>
   </g>
   <g id="patch_35">
    <path d="M 574.38 113.539141 
L 596.38 113.539141 
L 596.38 105.839141 
L 574.38 105.839141 
z
" style="fill: #4c72b0; fill-opacity: 0.7; stroke: #4c72b0; stroke-linejoin: miter"/>
   </g>
   <g id="text_19">
    <!-- definitely would want to attend -->
    <g transform="translate(605.18 113.539141) scale(0.11 -0.11)">
     <use xlink:href="#ArialMT-64"/>
     <use xlink:href="#ArialMT-65" x="55.615234"/>
     <use xlink:href="#ArialMT-66" x="111.230469"/>
     <use xlink:href="#ArialMT-69" x="139.013672"/>
     <use xlink:href="#ArialMT-6e" x="161.230469"/>
     <use xlink:href="#ArialMT-69" x="216.845703"/>
     <use xlink:href="#ArialMT-74" x="239.0625"/>
     <use xlink:href="#ArialMT-65" x="266.845703"/>
     <use xlink:href="#ArialMT-6c" x="322.460938"/>
     <use xlink:href="#ArialMT-79" x="344.677734"/>
     <use xlink:href="#ArialMT-20" x="394.677734"/>
     <use xlink:href="#ArialMT-77" x="422.460938"/>
     <use xlink:href="#ArialMT-6f" x="494.677734"/>
     <use xlink:href="#ArialMT-75" x="550.292969"/>
     <use xlink:href="#ArialMT-6c" x="605.908203"/>
     <use xlink:href="#ArialMT-64" x="628.125"/>
     <use xlink:href="#ArialMT-20" x="683.740234"/>
     <use xlink:href="#ArialMT-77" x="711.523438"/>
     <use xlink:href="#ArialMT-61" x="783.740234"/>
     <use xlink:href="#ArialMT-6e" x="839.355469"/>
     <use xlink:href="#ArialMT-74" x="894.970703"/>
     <use xlink:href="#ArialMT-20" x="922.753906"/>
     <use xlink:href="#ArialMT-74" x="950.537109"/>
     <use xlink:href="#ArialMT-6f" x="978.320312"/>
     <use xlink:href="#ArialMT-20" x="1033.935547"/>
     <use xlink:href="#ArialMT-61" x="1061.71875"/>
     <use xlink:href="#ArialMT-74" x="1117.333984"/>
     <use xlink:href="#ArialMT-74" x="1145.117188"/>
     <use xlink:href="#ArialMT-65" x="1172.900391"/>
     <use xlink:href="#ArialMT-6e" x="1228.515625"/>
     <use xlink:href="#ArialMT-64" x="1284.130859"/>
    </g>
   </g>
   <g id="patch_36">
    <path d="M 574.38 129.227891 
L 596.38 129.227891 
L 596.38 121.527891 
L 574.38 121.527891 
z
" style="fill: #dd8452; fill-opacity: 0.7; stroke: #dd8452; stroke-linejoin: miter"/>
   </g>
   <g id="text_20">
    <!-- maybe interested -->
    <g transform="translate(605.18 129.227891) scale(0.11 -0.11)">
     <use xlink:href="#ArialMT-6d"/>
     <use xlink:href="#ArialMT-61" x="83.300781"/>
     <use xlink:href="#ArialMT-79" x="138.916016"/>
     <use xlink:href="#ArialMT-62" x="188.916016"/>
     <use xlink:href="#ArialMT-65" x="244.53125"/>
     <use xlink:href="#ArialMT-20" x="300.146484"/>
     <use xlink:href="#ArialMT-69" x="327.929688"/>
     <use xlink:href="#ArialMT-6e" x="350.146484"/>
     <use xlink:href="#ArialMT-74" x="405.761719"/>
     <use xlink:href="#ArialMT-65" x="433.544922"/>
     <use xlink:href="#ArialMT-72" x="489.160156"/>
     <use xlink:href="#ArialMT-65" x="522.460938"/>
     <use xlink:href="#ArialMT-73" x="578.076172"/>
     <use xlink:href="#ArialMT-74" x="628.076172"/>
     <use xlink:href="#ArialMT-65" x="655.859375"/>
     <use xlink:href="#ArialMT-64" x="711.474609"/>
    </g>
   </g>
   <g id="patch_37">
    <path d="M 574.38 144.916641 
L 596.38 144.916641 
L 596.38 137.216641 
L 574.38 137.216641 
z
" style="fill: #55a868; fill-opacity: 0.7; stroke: #55a868; stroke-linejoin: miter"/>
   </g>
   <g id="text_21">
    <!-- not at all interested -->
    <g transform="translate(605.18 144.916641) scale(0.11 -0.11)">
     <use xlink:href="#ArialMT-6e"/>
     <use xlink:href="#ArialMT-6f" x="55.615234"/>
     <use xlink:href="#ArialMT-74" x="111.230469"/>
     <use xlink:href="#ArialMT-20" x="139.013672"/>
     <use xlink:href="#ArialMT-61" x="166.796875"/>
     <use xlink:href="#ArialMT-74" x="222.412109"/>
     <use xlink:href="#ArialMT-20" x="250.195312"/>
     <use xlink:href="#ArialMT-61" x="277.978516"/>
     <use xlink:href="#ArialMT-6c" x="333.59375"/>
     <use xlink:href="#ArialMT-6c" x="355.810547"/>
     <use xlink:href="#ArialMT-20" x="378.027344"/>
     <use xlink:href="#ArialMT-69" x="405.810547"/>
     <use xlink:href="#ArialMT-6e" x="428.027344"/>
     <use xlink:href="#ArialMT-74" x="483.642578"/>
     <use xlink:href="#ArialMT-65" x="511.425781"/>
     <use xlink:href="#ArialMT-72" x="567.041016"/>
     <use xlink:href="#ArialMT-65" x="600.341797"/>
     <use xlink:href="#ArialMT-73" x="655.957031"/>
     <use xlink:href="#ArialMT-74" x="705.957031"/>
     <use xlink:href="#ArialMT-65" x="733.740234"/>
     <use xlink:href="#ArialMT-64" x="789.355469"/>
    </g>
   </g>
  </g>
 </g>
 <defs>
  <clipPath id="p5bba481e64">
   <rect x="46.964375" y="7.2" width="510.315625" height="204.018844"/>
  </clipPath>
  <clipPath id="p03dcd08b5e">
   <path d="M 52.634549 211.218844 
L 97.995937 211.218844 
L 97.995937 170.68067 
L 52.634549 170.68067 
z
"/>
  </clipPath>
  <clipPath id="pd66ef6d50f">
   <path d="M 52.634549 170.68067 
L 97.995937 170.68067 
L 97.995937 63.743763 
L 52.634549 63.743763 
z
"/>
  </clipPath>
  <clipPath id="pad6ca3af5f">
   <path d="M 52.634549 63.743763 
L 97.995937 63.743763 
L 97.995937 16.915183 
L 52.634549 16.915183 
z
"/>
  </clipPath>
  <clipPath id="p51bce9dbc1">
   <path d="M 109.336285 211.218844 
L 154.697674 211.218844 
L 154.697674 132.790821 
L 109.336285 132.790821 
z
"/>
  </clipPath>
  <clipPath id="p86f34aedd9">
   <path d="M 109.336285 132.790821 
L 154.697674 132.790821 
L 154.697674 47.29721 
L 109.336285 47.29721 
z
"/>
  </clipPath>
  <clipPath id="p214fdd647e">
   <path d="M 109.336285 47.29721 
L 154.697674 47.29721 
L 154.697674 16.915183 
L 109.336285 16.915183 
z
"/>
  </clipPath>
  <clipPath id="p45f32b1a0e">
   <path d="M 166.038021 211.218844 
L 211.39941 211.218844 
L 211.39941 130.487041 
L 166.038021 130.487041 
z
"/>
  </clipPath>
  <clipPath id="pfacba1aefb">
   <path d="M 166.038021 130.487041 
L 211.39941 130.487041 
L 211.39941 38.124385 
L 166.038021 38.124385 
z
"/>
  </clipPath>
  <clipPath id="pdb3b37178c">
   <path d="M 166.038021 38.124385 
L 211.39941 38.124385 
L 211.39941 16.915183 
L 166.038021 16.915183 
z
"/>
  </clipPath>
  <clipPath id="p1d40645588">
   <path d="M 222.739757 211.218844 
L 268.101146 211.218844 
L 268.101146 117.87011 
L 222.739757 117.87011 
z
"/>
  </clipPath>
  <clipPath id="p1bccc1a110">
   <path d="M 222.739757 117.87011 
L 268.101146 117.87011 
L 268.101146 30.744625 
L 222.739757 30.744625 
z
"/>
  </clipPath>
  <clipPath id="p06ab468a4b">
   <path d="M 222.739757 30.744625 
L 268.101146 30.744625 
L 268.101146 16.915183 
L 222.739757 16.915183 
z
"/>
  </clipPath>
  <clipPath id="p26fc7c8d1e">
   <path d="M 279.441493 211.218844 
L 324.802882 211.218844 
L 324.802882 122.961195 
L 279.441493 122.961195 
z
"/>
  </clipPath>
  <clipPath id="p335d9da828">
   <path d="M 279.441493 122.961195 
L 324.802882 122.961195 
L 324.802882 39.492721 
L 279.441493 39.492721 
z
"/>
  </clipPath>
  <clipPath id="pcfb67cc306">
   <path d="M 279.441493 39.492721 
L 324.802882 39.492721 
L 324.802882 16.915183 
L 279.441493 16.915183 
z
"/>
  </clipPath>
  <clipPath id="pc417cd98ae">
   <path d="M 336.143229 211.218844 
L 381.504618 211.218844 
L 381.504618 119.902989 
L 336.143229 119.902989 
z
"/>
  </clipPath>
  <clipPath id="pe130985370">
   <path d="M 336.143229 119.902989 
L 381.504618 119.902989 
L 381.504618 33.393232 
L 336.143229 33.393232 
z
"/>
  </clipPath>
  <clipPath id="p434f7ff9ab">
   <path d="M 336.143229 33.393232 
L 381.504618 33.393232 
L 381.504618 16.915183 
L 336.143229 16.915183 
z
"/>
  </clipPath>
  <clipPath id="p929555a33c">
   <path d="M 392.844965 211.218844 
L 438.206354 211.218844 
L 438.206354 124.402314 
L 392.844965 124.402314 
z
"/>
  </clipPath>
  <clipPath id="p57b463e579">
   <path d="M 392.844965 124.402314 
L 438.206354 124.402314 
L 438.206354 30.006564 
L 392.844965 30.006564 
z
"/>
  </clipPath>
  <clipPath id="pd429ef0d1f">
   <path d="M 392.844965 30.006564 
L 438.206354 30.006564 
L 438.206354 16.915183 
L 392.844965 16.915183 
z
"/>
  </clipPath>
  <clipPath id="p4490892f07">
   <path d="M 449.546701 211.218844 
L 494.90809 211.218844 
L 494.90809 79.637768 
L 449.546701 79.637768 
z
"/>
  </clipPath>
  <clipPath id="p8575cffca1">
   <path d="M 449.546701 79.637768 
L 494.90809 79.637768 
L 494.90809 23.051088 
L 449.546701 23.051088 
z
"/>
  </clipPath>
  <clipPath id="pbc4dc041e5">
   <path d="M 449.546701 23.051088 
L 494.90809 23.051088 
L 494.90809 16.915183 
L 449.546701 16.915183 
z
"/>
  </clipPath>
  <clipPath id="p653bd128f3">
   <path d="M 506.248437 211.218844 
L 551.609826 211.218844 
L 551.609826 129.515184 
L 506.248437 129.515184 
z
"/>
  </clipPath>
  <clipPath id="pca23501918">
   <path d="M 506.248437 129.515184 
L 551.609826 129.515184 
L 551.609826 45.065183 
L 506.248437 45.065183 
z
"/>
  </clipPath>
  <clipPath id="p9d7903925b">
   <path d="M 506.248437 45.065183 
L 551.609826 45.065183 
L 551.609826 16.915183 
L 506.248437 16.915183 
z
"/>
  </clipPath>
 </defs>
</svg>
