<?xml version="1.0" encoding="utf-8" standalone="no"?>
<!DOCTYPE svg PUBLIC "-//W3C//DTD SVG 1.1//EN"
  "http://www.w3.org/Graphics/SVG/1.1/DTD/svg11.dtd">
<svg xmlns:xlink="http://www.w3.org/1999/xlink" width="655.049219pt" height="276.48pt" viewBox="0 0 655.049219 276.48" xmlns="http://www.w3.org/2000/svg" version="1.1">
 <metadata>
  <rdf:RDF xmlns:dc="http://purl.org/dc/elements/1.1/" xmlns:cc="http://creativecommons.org/ns#" xmlns:rdf="http://www.w3.org/1999/02/22-rdf-syntax-ns#">
   <cc:Work>
    <dc:type rdf:resource="http://purl.org/dc/dcmitype/StillImage"/>
    <dc:date>2024-07-27T20:48:58.722316</dc:date>
    <dc:format>image/svg+xml</dc:format>
    <dc:creator>
     <cc:Agent>
      <dc:title>Matplotlib v3.8.4, https://matplotlib.org/</dc:title>
     </cc:Agent>
    </dc:creator>
   </cc:Work>
  </rdf:RDF>
 </metadata>
 <defs>
  <style type="text/css">*{stroke-linejoin: round; stroke-linecap: butt}</style>
 </defs>
 <g id="figure_1">
  <g id="patch_1">
   <path d="M 0 276.48 
L 655.049219 276.48 
L 655.049219 0 
L 0 0 
z
" style="fill: #ffffff"/>
  </g>
  <g id="axes_1">
   <g id="patch_2">
    <path d="M 46.964375 222.702 
L 557.28 222.702 
L 557.28 7.2 
L 46.964375 7.2 
z
" style="fill: #eaeaf2"/>
   </g>
   <g id="matplotlib.axis_1">
    <g id="xtick_1">
     <g id="text_1">
      <!-- instruction -->
      <g style="fill: #262626" transform="translate(64.425286 240.075594) scale(0.11 -0.11)">
       <defs>
        <path id="ArialMT-69" d="M 425 3934 
L 425 4581 
L 988 4581 
L 988 3934 
L 425 3934 
z
M 425 0 
L 425 3319 
L 988 3319 
L 988 0 
L 425 0 
z
" transform="scale(0.015625)"/>
        <path id="ArialMT-6e" d="M 422 0 
L 422 3319 
L 928 3319 
L 928 2847 
Q 1294 3394 1984 3394 
Q 2284 3394 2536 3286 
Q 2788 3178 2913 3003 
Q 3038 2828 3088 2588 
Q 3119 2431 3119 2041 
L 3119 0 
L 2556 0 
L 2556 2019 
Q 2556 2363 2490 2533 
Q 2425 2703 2258 2804 
Q 2091 2906 1866 2906 
Q 1506 2906 1245 2678 
Q 984 2450 984 1813 
L 984 0 
L 422 0 
z
" transform="scale(0.015625)"/>
        <path id="ArialMT-73" d="M 197 991 
L 753 1078 
Q 800 744 1014 566 
Q 1228 388 1613 388 
Q 2000 388 2187 545 
Q 2375 703 2375 916 
Q 2375 1106 2209 1216 
Q 2094 1291 1634 1406 
Q 1016 1563 777 1677 
Q 538 1791 414 1992 
Q 291 2194 291 2438 
Q 291 2659 392 2848 
Q 494 3038 669 3163 
Q 800 3259 1026 3326 
Q 1253 3394 1513 3394 
Q 1903 3394 2198 3281 
Q 2494 3169 2634 2976 
Q 2775 2784 2828 2463 
L 2278 2388 
Q 2241 2644 2061 2787 
Q 1881 2931 1553 2931 
Q 1166 2931 1000 2803 
Q 834 2675 834 2503 
Q 834 2394 903 2306 
Q 972 2216 1119 2156 
Q 1203 2125 1616 2013 
Q 2213 1853 2448 1751 
Q 2684 1650 2818 1456 
Q 2953 1263 2953 975 
Q 2953 694 2789 445 
Q 2625 197 2315 61 
Q 2006 -75 1616 -75 
Q 969 -75 630 194 
Q 291 463 197 991 
z
" transform="scale(0.015625)"/>
        <path id="ArialMT-74" d="M 1650 503 
L 1731 6 
Q 1494 -44 1306 -44 
Q 1000 -44 831 53 
Q 663 150 594 308 
Q 525 466 525 972 
L 525 2881 
L 113 2881 
L 113 3319 
L 525 3319 
L 525 4141 
L 1084 4478 
L 1084 3319 
L 1650 3319 
L 1650 2881 
L 1084 2881 
L 1084 941 
Q 1084 700 1114 631 
Q 1144 563 1211 522 
Q 1278 481 1403 481 
Q 1497 481 1650 503 
z
" transform="scale(0.015625)"/>
        <path id="ArialMT-72" d="M 416 0 
L 416 3319 
L 922 3319 
L 922 2816 
Q 1116 3169 1280 3281 
Q 1444 3394 1641 3394 
Q 1925 3394 2219 3213 
L 2025 2691 
Q 1819 2813 1613 2813 
Q 1428 2813 1281 2702 
Q 1134 2591 1072 2394 
Q 978 2094 978 1738 
L 978 0 
L 416 0 
z
" transform="scale(0.015625)"/>
        <path id="ArialMT-75" d="M 2597 0 
L 2597 488 
Q 2209 -75 1544 -75 
Q 1250 -75 995 37 
Q 741 150 617 320 
Q 494 491 444 738 
Q 409 903 409 1263 
L 409 3319 
L 972 3319 
L 972 1478 
Q 972 1038 1006 884 
Q 1059 663 1231 536 
Q 1403 409 1656 409 
Q 1909 409 2131 539 
Q 2353 669 2445 892 
Q 2538 1116 2538 1541 
L 2538 3319 
L 3100 3319 
L 3100 0 
L 2597 0 
z
" transform="scale(0.015625)"/>
        <path id="ArialMT-63" d="M 2588 1216 
L 3141 1144 
Q 3050 572 2676 248 
Q 2303 -75 1759 -75 
Q 1078 -75 664 370 
Q 250 816 250 1647 
Q 250 2184 428 2587 
Q 606 2991 970 3192 
Q 1334 3394 1763 3394 
Q 2303 3394 2647 3120 
Q 2991 2847 3088 2344 
L 2541 2259 
Q 2463 2594 2264 2762 
Q 2066 2931 1784 2931 
Q 1359 2931 1093 2626 
Q 828 2322 828 1663 
Q 828 994 1084 691 
Q 1341 388 1753 388 
Q 2084 388 2306 591 
Q 2528 794 2588 1216 
z
" transform="scale(0.015625)"/>
        <path id="ArialMT-6f" d="M 213 1659 
Q 213 2581 725 3025 
Q 1153 3394 1769 3394 
Q 2453 3394 2887 2945 
Q 3322 2497 3322 1706 
Q 3322 1066 3130 698 
Q 2938 331 2570 128 
Q 2203 -75 1769 -75 
Q 1072 -75 642 372 
Q 213 819 213 1659 
z
M 791 1659 
Q 791 1022 1069 705 
Q 1347 388 1769 388 
Q 2188 388 2466 706 
Q 2744 1025 2744 1678 
Q 2744 2294 2464 2611 
Q 2184 2928 1769 2928 
Q 1347 2928 1069 2612 
Q 791 2297 791 1659 
z
" transform="scale(0.015625)"/>
       </defs>
       <use xlink:href="#ArialMT-69"/>
       <use xlink:href="#ArialMT-6e" x="22.216797"/>
       <use xlink:href="#ArialMT-73" x="77.832031"/>
       <use xlink:href="#ArialMT-74" x="127.832031"/>
       <use xlink:href="#ArialMT-72" x="155.615234"/>
       <use xlink:href="#ArialMT-75" x="188.916016"/>
       <use xlink:href="#ArialMT-63" x="244.53125"/>
       <use xlink:href="#ArialMT-74" x="294.53125"/>
       <use xlink:href="#ArialMT-69" x="322.314453"/>
       <use xlink:href="#ArialMT-6f" x="344.53125"/>
       <use xlink:href="#ArialMT-6e" x="400.146484"/>
      </g>
     </g>
    </g>
    <g id="xtick_2">
     <g id="text_2">
      <!-- tool -->
      <g style="fill: #262626" transform="translate(165.67625 240.075594) scale(0.11 -0.11)">
       <defs>
        <path id="ArialMT-6c" d="M 409 0 
L 409 4581 
L 972 4581 
L 972 0 
L 409 0 
z
" transform="scale(0.015625)"/>
       </defs>
       <use xlink:href="#ArialMT-74"/>
       <use xlink:href="#ArialMT-6f" x="27.783203"/>
       <use xlink:href="#ArialMT-6f" x="83.398438"/>
       <use xlink:href="#ArialMT-6c" x="139.013672"/>
      </g>
      <!-- development -->
      <g style="fill: #262626" transform="translate(143.052344 251.710156) scale(0.11 -0.11)">
       <defs>
        <path id="ArialMT-64" d="M 2575 0 
L 2575 419 
Q 2259 -75 1647 -75 
Q 1250 -75 917 144 
Q 584 363 401 755 
Q 219 1147 219 1656 
Q 219 2153 384 2558 
Q 550 2963 881 3178 
Q 1213 3394 1622 3394 
Q 1922 3394 2156 3267 
Q 2391 3141 2538 2938 
L 2538 4581 
L 3097 4581 
L 3097 0 
L 2575 0 
z
M 797 1656 
Q 797 1019 1065 703 
Q 1334 388 1700 388 
Q 2069 388 2326 689 
Q 2584 991 2584 1609 
Q 2584 2291 2321 2609 
Q 2059 2928 1675 2928 
Q 1300 2928 1048 2622 
Q 797 2316 797 1656 
z
" transform="scale(0.015625)"/>
        <path id="ArialMT-65" d="M 2694 1069 
L 3275 997 
Q 3138 488 2766 206 
Q 2394 -75 1816 -75 
Q 1088 -75 661 373 
Q 234 822 234 1631 
Q 234 2469 665 2931 
Q 1097 3394 1784 3394 
Q 2450 3394 2872 2941 
Q 3294 2488 3294 1666 
Q 3294 1616 3291 1516 
L 816 1516 
Q 847 969 1125 678 
Q 1403 388 1819 388 
Q 2128 388 2347 550 
Q 2566 713 2694 1069 
z
M 847 1978 
L 2700 1978 
Q 2663 2397 2488 2606 
Q 2219 2931 1791 2931 
Q 1403 2931 1139 2672 
Q 875 2413 847 1978 
z
" transform="scale(0.015625)"/>
        <path id="ArialMT-76" d="M 1344 0 
L 81 3319 
L 675 3319 
L 1388 1331 
Q 1503 1009 1600 663 
Q 1675 925 1809 1294 
L 2547 3319 
L 3125 3319 
L 1869 0 
L 1344 0 
z
" transform="scale(0.015625)"/>
        <path id="ArialMT-70" d="M 422 -1272 
L 422 3319 
L 934 3319 
L 934 2888 
Q 1116 3141 1344 3267 
Q 1572 3394 1897 3394 
Q 2322 3394 2647 3175 
Q 2972 2956 3137 2557 
Q 3303 2159 3303 1684 
Q 3303 1175 3120 767 
Q 2938 359 2589 142 
Q 2241 -75 1856 -75 
Q 1575 -75 1351 44 
Q 1128 163 984 344 
L 984 -1272 
L 422 -1272 
z
M 931 1641 
Q 931 1000 1190 694 
Q 1450 388 1819 388 
Q 2194 388 2461 705 
Q 2728 1022 2728 1688 
Q 2728 2322 2467 2637 
Q 2206 2953 1844 2953 
Q 1484 2953 1207 2617 
Q 931 2281 931 1641 
z
" transform="scale(0.015625)"/>
        <path id="ArialMT-6d" d="M 422 0 
L 422 3319 
L 925 3319 
L 925 2853 
Q 1081 3097 1340 3245 
Q 1600 3394 1931 3394 
Q 2300 3394 2536 3241 
Q 2772 3088 2869 2813 
Q 3263 3394 3894 3394 
Q 4388 3394 4653 3120 
Q 4919 2847 4919 2278 
L 4919 0 
L 4359 0 
L 4359 2091 
Q 4359 2428 4304 2576 
Q 4250 2725 4106 2815 
Q 3963 2906 3769 2906 
Q 3419 2906 3187 2673 
Q 2956 2441 2956 1928 
L 2956 0 
L 2394 0 
L 2394 2156 
Q 2394 2531 2256 2718 
Q 2119 2906 1806 2906 
Q 1569 2906 1367 2781 
Q 1166 2656 1075 2415 
Q 984 2175 984 1722 
L 984 0 
L 422 0 
z
" transform="scale(0.015625)"/>
       </defs>
       <use xlink:href="#ArialMT-64"/>
       <use xlink:href="#ArialMT-65" x="55.615234"/>
       <use xlink:href="#ArialMT-76" x="111.230469"/>
       <use xlink:href="#ArialMT-65" x="161.230469"/>
       <use xlink:href="#ArialMT-6c" x="216.845703"/>
       <use xlink:href="#ArialMT-6f" x="239.0625"/>
       <use xlink:href="#ArialMT-70" x="294.677734"/>
       <use xlink:href="#ArialMT-6d" x="350.292969"/>
       <use xlink:href="#ArialMT-65" x="433.59375"/>
       <use xlink:href="#ArialMT-6e" x="489.208984"/>
       <use xlink:href="#ArialMT-74" x="544.824219"/>
      </g>
     </g>
    </g>
    <g id="xtick_3">
     <g id="text_3">
      <!-- management/ -->
      <g style="fill: #262626" transform="translate(225.967682 240.209656) scale(0.11 -0.11)">
       <defs>
        <path id="ArialMT-61" d="M 2588 409 
Q 2275 144 1986 34 
Q 1697 -75 1366 -75 
Q 819 -75 525 192 
Q 231 459 231 875 
Q 231 1119 342 1320 
Q 453 1522 633 1644 
Q 813 1766 1038 1828 
Q 1203 1872 1538 1913 
Q 2219 1994 2541 2106 
Q 2544 2222 2544 2253 
Q 2544 2597 2384 2738 
Q 2169 2928 1744 2928 
Q 1347 2928 1158 2789 
Q 969 2650 878 2297 
L 328 2372 
Q 403 2725 575 2942 
Q 747 3159 1072 3276 
Q 1397 3394 1825 3394 
Q 2250 3394 2515 3294 
Q 2781 3194 2906 3042 
Q 3031 2891 3081 2659 
Q 3109 2516 3109 2141 
L 3109 1391 
Q 3109 606 3145 398 
Q 3181 191 3288 0 
L 2700 0 
Q 2613 175 2588 409 
z
M 2541 1666 
Q 2234 1541 1622 1453 
Q 1275 1403 1131 1340 
Q 988 1278 909 1158 
Q 831 1038 831 891 
Q 831 666 1001 516 
Q 1172 366 1500 366 
Q 1825 366 2078 508 
Q 2331 650 2450 897 
Q 2541 1088 2541 1459 
L 2541 1666 
z
" transform="scale(0.015625)"/>
        <path id="ArialMT-67" d="M 319 -275 
L 866 -356 
Q 900 -609 1056 -725 
Q 1266 -881 1628 -881 
Q 2019 -881 2231 -725 
Q 2444 -569 2519 -288 
Q 2563 -116 2559 434 
Q 2191 0 1641 0 
Q 956 0 581 494 
Q 206 988 206 1678 
Q 206 2153 378 2554 
Q 550 2956 876 3175 
Q 1203 3394 1644 3394 
Q 2231 3394 2613 2919 
L 2613 3319 
L 3131 3319 
L 3131 450 
Q 3131 -325 2973 -648 
Q 2816 -972 2473 -1159 
Q 2131 -1347 1631 -1347 
Q 1038 -1347 672 -1080 
Q 306 -813 319 -275 
z
M 784 1719 
Q 784 1066 1043 766 
Q 1303 466 1694 466 
Q 2081 466 2343 764 
Q 2606 1063 2606 1700 
Q 2606 2309 2336 2618 
Q 2066 2928 1684 2928 
Q 1309 2928 1046 2623 
Q 784 2319 784 1719 
z
" transform="scale(0.015625)"/>
        <path id="ArialMT-2f" d="M 0 -78 
L 1328 4659 
L 1778 4659 
L 453 -78 
L 0 -78 
z
" transform="scale(0.015625)"/>
       </defs>
       <use xlink:href="#ArialMT-6d"/>
       <use xlink:href="#ArialMT-61" x="83.300781"/>
       <use xlink:href="#ArialMT-6e" x="138.916016"/>
       <use xlink:href="#ArialMT-61" x="194.53125"/>
       <use xlink:href="#ArialMT-67" x="250.146484"/>
       <use xlink:href="#ArialMT-65" x="305.761719"/>
       <use xlink:href="#ArialMT-6d" x="361.376953"/>
       <use xlink:href="#ArialMT-65" x="444.677734"/>
       <use xlink:href="#ArialMT-6e" x="500.292969"/>
       <use xlink:href="#ArialMT-74" x="555.908203"/>
       <use xlink:href="#ArialMT-2f" x="583.691406"/>
      </g>
      <!-- administration -->
      <g style="fill: #262626" transform="translate(225.360104 251.973125) scale(0.11 -0.11)">
       <use xlink:href="#ArialMT-61"/>
       <use xlink:href="#ArialMT-64" x="55.615234"/>
       <use xlink:href="#ArialMT-6d" x="111.230469"/>
       <use xlink:href="#ArialMT-69" x="194.53125"/>
       <use xlink:href="#ArialMT-6e" x="216.748047"/>
       <use xlink:href="#ArialMT-69" x="272.363281"/>
       <use xlink:href="#ArialMT-73" x="294.580078"/>
       <use xlink:href="#ArialMT-74" x="344.580078"/>
       <use xlink:href="#ArialMT-72" x="372.363281"/>
       <use xlink:href="#ArialMT-61" x="405.664062"/>
       <use xlink:href="#ArialMT-74" x="461.279297"/>
       <use xlink:href="#ArialMT-69" x="489.0625"/>
       <use xlink:href="#ArialMT-6f" x="511.279297"/>
       <use xlink:href="#ArialMT-6e" x="566.894531"/>
      </g>
     </g>
    </g>
    <g id="xtick_4">
     <g id="text_4">
      <!-- service -->
      <g style="fill: #262626" transform="translate(327.228099 240.075594) scale(0.11 -0.11)">
       <use xlink:href="#ArialMT-73"/>
       <use xlink:href="#ArialMT-65" x="50"/>
       <use xlink:href="#ArialMT-72" x="105.615234"/>
       <use xlink:href="#ArialMT-76" x="138.916016"/>
       <use xlink:href="#ArialMT-69" x="188.916016"/>
       <use xlink:href="#ArialMT-63" x="211.132812"/>
       <use xlink:href="#ArialMT-65" x="261.132812"/>
      </g>
     </g>
    </g>
    <g id="xtick_5">
     <g id="text_5">
      <!-- own -->
      <g style="fill: #262626" transform="translate(419.612031 240.075594) scale(0.11 -0.11)">
       <defs>
        <path id="ArialMT-77" d="M 1034 0 
L 19 3319 
L 600 3319 
L 1128 1403 
L 1325 691 
Q 1338 744 1497 1375 
L 2025 3319 
L 2603 3319 
L 3100 1394 
L 3266 759 
L 3456 1400 
L 4025 3319 
L 4572 3319 
L 3534 0 
L 2950 0 
L 2422 1988 
L 2294 2553 
L 1622 0 
L 1034 0 
z
" transform="scale(0.015625)"/>
       </defs>
       <use xlink:href="#ArialMT-6f"/>
       <use xlink:href="#ArialMT-77" x="55.615234"/>
       <use xlink:href="#ArialMT-6e" x="127.832031"/>
      </g>
      <!-- projects -->
      <g style="fill: #262626" transform="translate(410.444219 251.710156) scale(0.11 -0.11)">
       <defs>
        <path id="ArialMT-6a" d="M 419 3928 
L 419 4581 
L 981 4581 
L 981 3928 
L 419 3928 
z
M -294 -1288 
L -188 -809 
Q -19 -853 78 -853 
Q 250 -853 334 -739 
Q 419 -625 419 -169 
L 419 3319 
L 981 3319 
L 981 -181 
Q 981 -794 822 -1034 
Q 619 -1347 147 -1347 
Q -81 -1347 -294 -1288 
z
" transform="scale(0.015625)"/>
       </defs>
       <use xlink:href="#ArialMT-70"/>
       <use xlink:href="#ArialMT-72" x="55.615234"/>
       <use xlink:href="#ArialMT-6f" x="88.916016"/>
       <use xlink:href="#ArialMT-6a" x="144.53125"/>
       <use xlink:href="#ArialMT-65" x="166.748047"/>
       <use xlink:href="#ArialMT-63" x="222.363281"/>
       <use xlink:href="#ArialMT-74" x="272.363281"/>
       <use xlink:href="#ArialMT-73" x="300.146484"/>
      </g>
     </g>
    </g>
    <g id="xtick_6">
     <g id="text_6">
      <!-- infrastructure -->
      <g style="fill: #262626" transform="translate(482.661198 240.075594) scale(0.11 -0.11)">
       <defs>
        <path id="ArialMT-66" d="M 556 0 
L 556 2881 
L 59 2881 
L 59 3319 
L 556 3319 
L 556 3672 
Q 556 4006 616 4169 
Q 697 4388 901 4523 
Q 1106 4659 1475 4659 
Q 1713 4659 2000 4603 
L 1916 4113 
Q 1741 4144 1584 4144 
Q 1328 4144 1222 4034 
Q 1116 3925 1116 3625 
L 1116 3319 
L 1763 3319 
L 1763 2881 
L 1116 2881 
L 1116 0 
L 556 0 
z
" transform="scale(0.015625)"/>
       </defs>
       <use xlink:href="#ArialMT-69"/>
       <use xlink:href="#ArialMT-6e" x="22.216797"/>
       <use xlink:href="#ArialMT-66" x="77.832031"/>
       <use xlink:href="#ArialMT-72" x="105.615234"/>
       <use xlink:href="#ArialMT-61" x="138.916016"/>
       <use xlink:href="#ArialMT-73" x="194.53125"/>
       <use xlink:href="#ArialMT-74" x="244.53125"/>
       <use xlink:href="#ArialMT-72" x="272.314453"/>
       <use xlink:href="#ArialMT-75" x="305.615234"/>
       <use xlink:href="#ArialMT-63" x="361.230469"/>
       <use xlink:href="#ArialMT-74" x="411.230469"/>
       <use xlink:href="#ArialMT-75" x="439.013672"/>
       <use xlink:href="#ArialMT-72" x="494.628906"/>
       <use xlink:href="#ArialMT-65" x="527.929688"/>
      </g>
     </g>
    </g>
    <g id="text_7">
     <!-- Time Spent -->
     <g style="fill: #262626" transform="translate(271.669375 266.895) scale(0.12 -0.12)">
      <defs>
       <path id="ArialMT-54" d="M 1659 0 
L 1659 4041 
L 150 4041 
L 150 4581 
L 3781 4581 
L 3781 4041 
L 2266 4041 
L 2266 0 
L 1659 0 
z
" transform="scale(0.015625)"/>
       <path id="ArialMT-20" transform="scale(0.015625)"/>
       <path id="ArialMT-53" d="M 288 1472 
L 859 1522 
Q 900 1178 1048 958 
Q 1197 738 1509 602 
Q 1822 466 2213 466 
Q 2559 466 2825 569 
Q 3091 672 3220 851 
Q 3350 1031 3350 1244 
Q 3350 1459 3225 1620 
Q 3100 1781 2813 1891 
Q 2628 1963 1997 2114 
Q 1366 2266 1113 2400 
Q 784 2572 623 2826 
Q 463 3081 463 3397 
Q 463 3744 659 4045 
Q 856 4347 1234 4503 
Q 1613 4659 2075 4659 
Q 2584 4659 2973 4495 
Q 3363 4331 3572 4012 
Q 3781 3694 3797 3291 
L 3216 3247 
Q 3169 3681 2898 3903 
Q 2628 4125 2100 4125 
Q 1550 4125 1298 3923 
Q 1047 3722 1047 3438 
Q 1047 3191 1225 3031 
Q 1400 2872 2139 2705 
Q 2878 2538 3153 2413 
Q 3553 2228 3743 1945 
Q 3934 1663 3934 1294 
Q 3934 928 3725 604 
Q 3516 281 3123 101 
Q 2731 -78 2241 -78 
Q 1619 -78 1198 103 
Q 778 284 539 648 
Q 300 1013 288 1472 
z
" transform="scale(0.015625)"/>
      </defs>
      <use xlink:href="#ArialMT-54"/>
      <use xlink:href="#ArialMT-69" x="57.333984"/>
      <use xlink:href="#ArialMT-6d" x="79.550781"/>
      <use xlink:href="#ArialMT-65" x="162.851562"/>
      <use xlink:href="#ArialMT-20" x="218.466797"/>
      <use xlink:href="#ArialMT-53" x="246.25"/>
      <use xlink:href="#ArialMT-70" x="312.949219"/>
      <use xlink:href="#ArialMT-65" x="368.564453"/>
      <use xlink:href="#ArialMT-6e" x="424.179688"/>
      <use xlink:href="#ArialMT-74" x="479.794922"/>
     </g>
    </g>
   </g>
   <g id="matplotlib.axis_2">
    <g id="ytick_1">
     <g id="line2d_1">
      <path d="M 46.964375 222.702 
L 557.28 222.702 
" clip-path="url(#p83b1d8da4c)" style="fill: none; stroke: #ffffff; stroke-linecap: round"/>
     </g>
     <g id="text_8">
      <!-- 0.0 -->
      <g style="fill: #262626" transform="translate(22.174375 226.638797) scale(0.11 -0.11)">
       <defs>
        <path id="ArialMT-30" d="M 266 2259 
Q 266 3072 433 3567 
Q 600 4063 929 4331 
Q 1259 4600 1759 4600 
Q 2128 4600 2406 4451 
Q 2684 4303 2865 4023 
Q 3047 3744 3150 3342 
Q 3253 2941 3253 2259 
Q 3253 1453 3087 958 
Q 2922 463 2592 192 
Q 2263 -78 1759 -78 
Q 1097 -78 719 397 
Q 266 969 266 2259 
z
M 844 2259 
Q 844 1131 1108 757 
Q 1372 384 1759 384 
Q 2147 384 2411 759 
Q 2675 1134 2675 2259 
Q 2675 3391 2411 3762 
Q 2147 4134 1753 4134 
Q 1366 4134 1134 3806 
Q 844 3388 844 2259 
z
" transform="scale(0.015625)"/>
        <path id="ArialMT-2e" d="M 581 0 
L 581 641 
L 1222 641 
L 1222 0 
L 581 0 
z
" transform="scale(0.015625)"/>
       </defs>
       <use xlink:href="#ArialMT-30"/>
       <use xlink:href="#ArialMT-2e" x="55.615234"/>
       <use xlink:href="#ArialMT-30" x="83.398438"/>
      </g>
     </g>
    </g>
    <g id="ytick_2">
     <g id="line2d_2">
      <path d="M 46.964375 181.654 
L 557.28 181.654 
" clip-path="url(#p83b1d8da4c)" style="fill: none; stroke: #ffffff; stroke-linecap: round"/>
     </g>
     <g id="text_9">
      <!-- 0.2 -->
      <g style="fill: #262626" transform="translate(22.174375 185.590797) scale(0.11 -0.11)">
       <defs>
        <path id="ArialMT-32" d="M 3222 541 
L 3222 0 
L 194 0 
Q 188 203 259 391 
Q 375 700 629 1000 
Q 884 1300 1366 1694 
Q 2113 2306 2375 2664 
Q 2638 3022 2638 3341 
Q 2638 3675 2398 3904 
Q 2159 4134 1775 4134 
Q 1369 4134 1125 3890 
Q 881 3647 878 3216 
L 300 3275 
Q 359 3922 746 4261 
Q 1134 4600 1788 4600 
Q 2447 4600 2831 4234 
Q 3216 3869 3216 3328 
Q 3216 3053 3103 2787 
Q 2991 2522 2730 2228 
Q 2469 1934 1863 1422 
Q 1356 997 1212 845 
Q 1069 694 975 541 
L 3222 541 
z
" transform="scale(0.015625)"/>
       </defs>
       <use xlink:href="#ArialMT-30"/>
       <use xlink:href="#ArialMT-2e" x="55.615234"/>
       <use xlink:href="#ArialMT-32" x="83.398438"/>
      </g>
     </g>
    </g>
    <g id="ytick_3">
     <g id="line2d_3">
      <path d="M 46.964375 140.606 
L 557.28 140.606 
" clip-path="url(#p83b1d8da4c)" style="fill: none; stroke: #ffffff; stroke-linecap: round"/>
     </g>
     <g id="text_10">
      <!-- 0.4 -->
      <g style="fill: #262626" transform="translate(22.174375 144.542797) scale(0.11 -0.11)">
       <defs>
        <path id="ArialMT-34" d="M 2069 0 
L 2069 1097 
L 81 1097 
L 81 1613 
L 2172 4581 
L 2631 4581 
L 2631 1613 
L 3250 1613 
L 3250 1097 
L 2631 1097 
L 2631 0 
L 2069 0 
z
M 2069 1613 
L 2069 3678 
L 634 1613 
L 2069 1613 
z
" transform="scale(0.015625)"/>
       </defs>
       <use xlink:href="#ArialMT-30"/>
       <use xlink:href="#ArialMT-2e" x="55.615234"/>
       <use xlink:href="#ArialMT-34" x="83.398438"/>
      </g>
     </g>
    </g>
    <g id="ytick_4">
     <g id="line2d_4">
      <path d="M 46.964375 99.558 
L 557.28 99.558 
" clip-path="url(#p83b1d8da4c)" style="fill: none; stroke: #ffffff; stroke-linecap: round"/>
     </g>
     <g id="text_11">
      <!-- 0.6 -->
      <g style="fill: #262626" transform="translate(22.174375 103.494797) scale(0.11 -0.11)">
       <defs>
        <path id="ArialMT-36" d="M 3184 3459 
L 2625 3416 
Q 2550 3747 2413 3897 
Q 2184 4138 1850 4138 
Q 1581 4138 1378 3988 
Q 1113 3794 959 3422 
Q 806 3050 800 2363 
Q 1003 2672 1297 2822 
Q 1591 2972 1913 2972 
Q 2475 2972 2870 2558 
Q 3266 2144 3266 1488 
Q 3266 1056 3080 686 
Q 2894 316 2569 119 
Q 2244 -78 1831 -78 
Q 1128 -78 684 439 
Q 241 956 241 2144 
Q 241 3472 731 4075 
Q 1159 4600 1884 4600 
Q 2425 4600 2770 4297 
Q 3116 3994 3184 3459 
z
M 888 1484 
Q 888 1194 1011 928 
Q 1134 663 1356 523 
Q 1578 384 1822 384 
Q 2178 384 2434 671 
Q 2691 959 2691 1453 
Q 2691 1928 2437 2201 
Q 2184 2475 1800 2475 
Q 1419 2475 1153 2201 
Q 888 1928 888 1484 
z
" transform="scale(0.015625)"/>
       </defs>
       <use xlink:href="#ArialMT-30"/>
       <use xlink:href="#ArialMT-2e" x="55.615234"/>
       <use xlink:href="#ArialMT-36" x="83.398438"/>
      </g>
     </g>
    </g>
    <g id="ytick_5">
     <g id="line2d_5">
      <path d="M 46.964375 58.51 
L 557.28 58.51 
" clip-path="url(#p83b1d8da4c)" style="fill: none; stroke: #ffffff; stroke-linecap: round"/>
     </g>
     <g id="text_12">
      <!-- 0.8 -->
      <g style="fill: #262626" transform="translate(22.174375 62.446797) scale(0.11 -0.11)">
       <defs>
        <path id="ArialMT-38" d="M 1131 2484 
Q 781 2613 612 2850 
Q 444 3088 444 3419 
Q 444 3919 803 4259 
Q 1163 4600 1759 4600 
Q 2359 4600 2725 4251 
Q 3091 3903 3091 3403 
Q 3091 3084 2923 2848 
Q 2756 2613 2416 2484 
Q 2838 2347 3058 2040 
Q 3278 1734 3278 1309 
Q 3278 722 2862 322 
Q 2447 -78 1769 -78 
Q 1091 -78 675 323 
Q 259 725 259 1325 
Q 259 1772 486 2073 
Q 713 2375 1131 2484 
z
M 1019 3438 
Q 1019 3113 1228 2906 
Q 1438 2700 1772 2700 
Q 2097 2700 2305 2904 
Q 2513 3109 2513 3406 
Q 2513 3716 2298 3927 
Q 2084 4138 1766 4138 
Q 1444 4138 1231 3931 
Q 1019 3725 1019 3438 
z
M 838 1322 
Q 838 1081 952 856 
Q 1066 631 1291 507 
Q 1516 384 1775 384 
Q 2178 384 2440 643 
Q 2703 903 2703 1303 
Q 2703 1709 2433 1975 
Q 2163 2241 1756 2241 
Q 1359 2241 1098 1978 
Q 838 1716 838 1322 
z
" transform="scale(0.015625)"/>
       </defs>
       <use xlink:href="#ArialMT-30"/>
       <use xlink:href="#ArialMT-2e" x="55.615234"/>
       <use xlink:href="#ArialMT-38" x="83.398438"/>
      </g>
     </g>
    </g>
    <g id="ytick_6">
     <g id="line2d_6">
      <path d="M 46.964375 17.462 
L 557.28 17.462 
" clip-path="url(#p83b1d8da4c)" style="fill: none; stroke: #ffffff; stroke-linecap: round"/>
     </g>
     <g id="text_13">
      <!-- 1.0 -->
      <g style="fill: #262626" transform="translate(22.174375 21.398797) scale(0.11 -0.11)">
       <defs>
        <path id="ArialMT-31" d="M 2384 0 
L 1822 0 
L 1822 3584 
Q 1619 3391 1289 3197 
Q 959 3003 697 2906 
L 697 3450 
Q 1169 3672 1522 3987 
Q 1875 4303 2022 4600 
L 2384 4600 
L 2384 0 
z
" transform="scale(0.015625)"/>
       </defs>
       <use xlink:href="#ArialMT-31"/>
       <use xlink:href="#ArialMT-2e" x="55.615234"/>
       <use xlink:href="#ArialMT-30" x="83.398438"/>
      </g>
     </g>
    </g>
    <g id="text_14">
     <!-- Fraction of answers -->
     <g style="fill: #262626" transform="translate(15.789375 167.301) rotate(-90) scale(0.12 -0.12)">
      <defs>
       <path id="ArialMT-46" d="M 525 0 
L 525 4581 
L 3616 4581 
L 3616 4041 
L 1131 4041 
L 1131 2622 
L 3281 2622 
L 3281 2081 
L 1131 2081 
L 1131 0 
L 525 0 
z
" transform="scale(0.015625)"/>
      </defs>
      <use xlink:href="#ArialMT-46"/>
      <use xlink:href="#ArialMT-72" x="61.083984"/>
      <use xlink:href="#ArialMT-61" x="94.384766"/>
      <use xlink:href="#ArialMT-63" x="150"/>
      <use xlink:href="#ArialMT-74" x="200"/>
      <use xlink:href="#ArialMT-69" x="227.783203"/>
      <use xlink:href="#ArialMT-6f" x="250"/>
      <use xlink:href="#ArialMT-6e" x="305.615234"/>
      <use xlink:href="#ArialMT-20" x="361.230469"/>
      <use xlink:href="#ArialMT-6f" x="389.013672"/>
      <use xlink:href="#ArialMT-66" x="444.628906"/>
      <use xlink:href="#ArialMT-20" x="472.412109"/>
      <use xlink:href="#ArialMT-61" x="500.195312"/>
      <use xlink:href="#ArialMT-6e" x="555.810547"/>
      <use xlink:href="#ArialMT-73" x="611.425781"/>
      <use xlink:href="#ArialMT-77" x="661.425781"/>
      <use xlink:href="#ArialMT-65" x="733.642578"/>
      <use xlink:href="#ArialMT-72" x="789.257812"/>
      <use xlink:href="#ArialMT-73" x="822.558594"/>
     </g>
    </g>
   </g>
   <g id="patch_3">
    <path d="M 55.469635 222.702 
L 123.511719 222.702 
L 123.511719 196.194989 
L 55.469635 196.194989 
z
" clip-path="url(#p4acf722674)" style="fill: #4c72b0; fill-opacity: 0.7; stroke: #4c72b0; stroke-width: 2; stroke-linejoin: miter"/>
   </g>
   <g id="patch_4">
    <path d="M 55.469635 196.194989 
L 123.511719 196.194989 
L 123.511719 174.98938 
L 55.469635 174.98938 
z
" clip-path="url(#pcfadb8922a)" style="fill: #dd8452; fill-opacity: 0.7; stroke: #dd8452; stroke-width: 2; stroke-linejoin: miter"/>
   </g>
   <g id="patch_5">
    <path d="M 55.469635 174.98938 
L 123.511719 174.98938 
L 123.511719 43.211668 
L 55.469635 43.211668 
z
" clip-path="url(#p902e8b38fa)" style="fill: #55a868; fill-opacity: 0.7; stroke: #55a868; stroke-width: 2; stroke-linejoin: miter"/>
   </g>
   <g id="patch_6">
    <path d="M 55.469635 43.211668 
L 123.511719 43.211668 
L 123.511719 25.035432 
L 55.469635 25.035432 
z
" clip-path="url(#p06d86947d3)" style="fill: #c44e52; fill-opacity: 0.7; stroke: #c44e52; stroke-width: 2; stroke-linejoin: miter"/>
   </g>
   <g id="patch_7">
    <path d="M 55.469635 25.035432 
L 123.511719 25.035432 
L 123.511719 19.73403 
L 55.469635 19.73403 
z
" clip-path="url(#p89c949da02)" style="fill: #8172b3; fill-opacity: 0.7; stroke: #8172b3; stroke-width: 2; stroke-linejoin: miter"/>
   </g>
   <g id="patch_8">
    <path d="M 55.469635 19.73403 
L 123.511719 19.73403 
L 123.511719 17.462 
L 55.469635 17.462 
z
" clip-path="url(#p81bd392d8a)" style="fill: #937860; fill-opacity: 0.7; stroke: #937860; stroke-width: 2; stroke-linejoin: miter"/>
   </g>
   <g id="patch_9">
    <path d="M 140.52224 222.702 
L 208.564323 222.702 
L 208.564323 150.754399 
L 140.52224 150.754399 
z
" clip-path="url(#pdc1ff42403)" style="fill: #4c72b0; fill-opacity: 0.7; stroke: #4c72b0; stroke-width: 2; stroke-linejoin: miter"/>
   </g>
   <g id="patch_10">
    <path d="M 140.52224 150.754399 
L 208.564323 150.754399 
L 208.564323 102.284435 
L 140.52224 102.284435 
z
" clip-path="url(#pda6dcd6c80)" style="fill: #dd8452; fill-opacity: 0.7; stroke: #dd8452; stroke-width: 2; stroke-linejoin: miter"/>
   </g>
   <g id="patch_11">
    <path d="M 140.52224 102.284435 
L 208.564323 102.284435 
L 208.564323 40.939638 
L 140.52224 40.939638 
z
" clip-path="url(#p06bbd4537e)" style="fill: #55a868; fill-opacity: 0.7; stroke: #55a868; stroke-width: 2; stroke-linejoin: miter"/>
   </g>
   <g id="patch_12">
    <path d="M 140.52224 40.939638 
L 208.564323 40.939638 
L 208.564323 25.035432 
L 140.52224 25.035432 
z
" clip-path="url(#p4ec5c076d8)" style="fill: #c44e52; fill-opacity: 0.7; stroke: #c44e52; stroke-width: 2; stroke-linejoin: miter"/>
   </g>
   <g id="patch_13">
    <path d="M 140.52224 25.035432 
L 208.564323 25.035432 
L 208.564323 18.976686 
L 140.52224 18.976686 
z
" clip-path="url(#pb0d3fe179e)" style="fill: #8172b3; fill-opacity: 0.7; stroke: #8172b3; stroke-width: 2; stroke-linejoin: miter"/>
   </g>
   <g id="patch_14">
    <path d="M 140.52224 18.976686 
L 208.564323 18.976686 
L 208.564323 17.462 
L 140.52224 17.462 
z
" clip-path="url(#pcd48089658)" style="fill: #937860; fill-opacity: 0.7; stroke: #937860; stroke-width: 2; stroke-linejoin: miter"/>
   </g>
   <g id="patch_15">
    <path d="M 225.574844 222.702 
L 293.616927 222.702 
L 293.616927 165.901262 
L 225.574844 165.901262 
z
" clip-path="url(#p4f104828a0)" style="fill: #4c72b0; fill-opacity: 0.7; stroke: #4c72b0; stroke-width: 2; stroke-linejoin: miter"/>
   </g>
   <g id="patch_16">
    <path d="M 225.574844 165.901262 
L 293.616927 165.901262 
L 293.616927 121.975358 
L 225.574844 121.975358 
z
" clip-path="url(#p374315e36d)" style="fill: #dd8452; fill-opacity: 0.7; stroke: #dd8452; stroke-width: 2; stroke-linejoin: miter"/>
   </g>
   <g id="patch_17">
    <path d="M 225.574844 121.975358 
L 293.616927 121.975358 
L 293.616927 56.086502 
L 225.574844 56.086502 
z
" clip-path="url(#p5d3e82bd44)" style="fill: #55a868; fill-opacity: 0.7; stroke: #55a868; stroke-width: 2; stroke-linejoin: miter"/>
   </g>
   <g id="patch_18">
    <path d="M 225.574844 56.086502 
L 293.616927 56.086502 
L 293.616927 31.094177 
L 225.574844 31.094177 
z
" clip-path="url(#pe6c063e0a8)" style="fill: #c44e52; fill-opacity: 0.7; stroke: #c44e52; stroke-width: 2; stroke-linejoin: miter"/>
   </g>
   <g id="patch_19">
    <path d="M 225.574844 31.094177 
L 293.616927 31.094177 
L 293.616927 22.763402 
L 225.574844 22.763402 
z
" clip-path="url(#pb62b6f67e0)" style="fill: #8172b3; fill-opacity: 0.7; stroke: #8172b3; stroke-width: 2; stroke-linejoin: miter"/>
   </g>
   <g id="patch_20">
    <path d="M 225.574844 22.763402 
L 293.616927 22.763402 
L 293.616927 17.462 
L 225.574844 17.462 
z
" clip-path="url(#paacf169af6)" style="fill: #937860; fill-opacity: 0.7; stroke: #937860; stroke-width: 2; stroke-linejoin: miter"/>
   </g>
   <g id="patch_21">
    <path d="M 310.627448 222.702 
L 378.669531 222.702 
L 378.669531 174.98938 
L 310.627448 174.98938 
z
" clip-path="url(#p033ab1823b)" style="fill: #4c72b0; fill-opacity: 0.7; stroke: #4c72b0; stroke-width: 2; stroke-linejoin: miter"/>
   </g>
   <g id="patch_22">
    <path d="M 310.627448 174.98938 
L 378.669531 174.98938 
L 378.669531 131.820819 
L 310.627448 131.820819 
z
" clip-path="url(#pa1b6c87b5a)" style="fill: #dd8452; fill-opacity: 0.7; stroke: #dd8452; stroke-width: 2; stroke-linejoin: miter"/>
   </g>
   <g id="patch_23">
    <path d="M 310.627448 131.820819 
L 378.669531 131.820819 
L 378.669531 60.630561 
L 310.627448 60.630561 
z
" clip-path="url(#pf6699f152c)" style="fill: #55a868; fill-opacity: 0.7; stroke: #55a868; stroke-width: 2; stroke-linejoin: miter"/>
   </g>
   <g id="patch_24">
    <path d="M 310.627448 60.630561 
L 378.669531 60.630561 
L 378.669531 31.85152 
L 310.627448 31.85152 
z
" clip-path="url(#p879e28e1ee)" style="fill: #c44e52; fill-opacity: 0.7; stroke: #c44e52; stroke-width: 2; stroke-linejoin: miter"/>
   </g>
   <g id="patch_25">
    <path d="M 310.627448 31.85152 
L 378.669531 31.85152 
L 378.669531 20.491373 
L 310.627448 20.491373 
z
" clip-path="url(#p9a2828f111)" style="fill: #8172b3; fill-opacity: 0.7; stroke: #8172b3; stroke-width: 2; stroke-linejoin: miter"/>
   </g>
   <g id="patch_26">
    <path d="M 310.627448 20.491373 
L 378.669531 20.491373 
L 378.669531 17.462 
L 310.627448 17.462 
z
" clip-path="url(#p0ae7b56f20)" style="fill: #937860; fill-opacity: 0.7; stroke: #937860; stroke-width: 2; stroke-linejoin: miter"/>
   </g>
   <g id="patch_27">
    <path d="M 395.680052 222.702 
L 463.722135 222.702 
L 463.722135 171.960007 
L 395.680052 171.960007 
z
" clip-path="url(#p7640f97bcc)" style="fill: #4c72b0; fill-opacity: 0.7; stroke: #4c72b0; stroke-width: 2; stroke-linejoin: miter"/>
   </g>
   <g id="patch_28">
    <path d="M 395.680052 171.960007 
L 463.722135 171.960007 
L 463.722135 137.879565 
L 395.680052 137.879565 
z
" clip-path="url(#pfba66210b8)" style="fill: #dd8452; fill-opacity: 0.7; stroke: #dd8452; stroke-width: 2; stroke-linejoin: miter"/>
   </g>
   <g id="patch_29">
    <path d="M 395.680052 137.879565 
L 463.722135 137.879565 
L 463.722135 76.534768 
L 395.680052 76.534768 
z
" clip-path="url(#p1f431c34e9)" style="fill: #55a868; fill-opacity: 0.7; stroke: #55a868; stroke-width: 2; stroke-linejoin: miter"/>
   </g>
   <g id="patch_30">
    <path d="M 395.680052 76.534768 
L 463.722135 76.534768 
L 463.722135 38.667609 
L 395.680052 38.667609 
z
" clip-path="url(#p58ed9bd6f9)" style="fill: #c44e52; fill-opacity: 0.7; stroke: #c44e52; stroke-width: 2; stroke-linejoin: miter"/>
   </g>
   <g id="patch_31">
    <path d="M 395.680052 38.667609 
L 463.722135 38.667609 
L 463.722135 24.278089 
L 395.680052 24.278089 
z
" clip-path="url(#p6d64624bf3)" style="fill: #8172b3; fill-opacity: 0.7; stroke: #8172b3; stroke-width: 2; stroke-linejoin: miter"/>
   </g>
   <g id="patch_32">
    <path d="M 395.680052 24.278089 
L 463.722135 24.278089 
L 463.722135 17.462 
L 395.680052 17.462 
z
" clip-path="url(#pf20d78fee9)" style="fill: #937860; fill-opacity: 0.7; stroke: #937860; stroke-width: 2; stroke-linejoin: miter"/>
   </g>
   <g id="patch_33">
    <path d="M 480.732656 222.702 
L 548.77474 222.702 
L 548.77474 157.570487 
L 480.732656 157.570487 
z
" clip-path="url(#pd922f43eb4)" style="fill: #4c72b0; fill-opacity: 0.7; stroke: #4c72b0; stroke-width: 2; stroke-linejoin: miter"/>
   </g>
   <g id="patch_34">
    <path d="M 480.732656 157.570487 
L 548.77474 157.570487 
L 548.77474 104.556465 
L 480.732656 104.556465 
z
" clip-path="url(#p5cc63f05c3)" style="fill: #dd8452; fill-opacity: 0.7; stroke: #dd8452; stroke-width: 2; stroke-linejoin: miter"/>
   </g>
   <g id="patch_35">
    <path d="M 480.732656 104.556465 
L 548.77474 104.556465 
L 548.77474 34.880893 
L 480.732656 34.880893 
z
" clip-path="url(#p0aa89cc251)" style="fill: #55a868; fill-opacity: 0.7; stroke: #55a868; stroke-width: 2; stroke-linejoin: miter"/>
   </g>
   <g id="patch_36">
    <path d="M 480.732656 34.880893 
L 548.77474 34.880893 
L 548.77474 18.219343 
L 480.732656 18.219343 
z
" clip-path="url(#pa289c3932c)" style="fill: #c44e52; fill-opacity: 0.7; stroke: #c44e52; stroke-width: 2; stroke-linejoin: miter"/>
   </g>
   <g id="patch_37">
    <path d="M 480.732656 18.219343 
L 548.77474 18.219343 
L 548.77474 17.462 
L 480.732656 17.462 
z
" clip-path="url(#p3cfc4aabcc)" style="fill: #8172b3; fill-opacity: 0.7; stroke: #8172b3; stroke-width: 2; stroke-linejoin: miter"/>
   </g>
   <g id="patch_38">
    <path d="M 46.964375 222.702 
L 46.964375 7.2 
" style="fill: none; stroke: #ffffff; stroke-width: 1.25; stroke-linejoin: miter; stroke-linecap: square"/>
   </g>
   <g id="patch_39">
    <path d="M 557.28 222.702 
L 557.28 7.2 
" style="fill: none; stroke: #ffffff; stroke-width: 1.25; stroke-linejoin: miter; stroke-linecap: square"/>
   </g>
   <g id="patch_40">
    <path d="M 46.964375 222.702 
L 557.28 222.702 
" style="fill: none; stroke: #ffffff; stroke-width: 1.25; stroke-linejoin: miter; stroke-linecap: square"/>
   </g>
   <g id="patch_41">
    <path d="M 46.964375 7.2 
L 557.28 7.2 
" style="fill: none; stroke: #ffffff; stroke-width: 1.25; stroke-linejoin: miter; stroke-linecap: square"/>
   </g>
  </g>
  <g id="legend_1">
   <g id="patch_42">
    <path d="M 572.18 174.646719 
L 651.409219 174.646719 
Q 653.609219 174.646719 653.609219 172.446719 
L 653.609219 63.713281 
Q 653.609219 61.513281 651.409219 61.513281 
L 572.18 61.513281 
Q 569.98 61.513281 569.98 63.713281 
L 569.98 172.446719 
Q 569.98 174.646719 572.18 174.646719 
z
" style="fill: #eaeaf2; opacity: 0.8; stroke: #cccccc; stroke-linejoin: miter"/>
   </g>
   <g id="text_15">
    <!-- percent -->
    <g transform="translate(591.783672 74.502656) scale(0.12 -0.12)">
     <use xlink:href="#ArialMT-70"/>
     <use xlink:href="#ArialMT-65" x="55.615234"/>
     <use xlink:href="#ArialMT-72" x="111.230469"/>
     <use xlink:href="#ArialMT-63" x="144.53125"/>
     <use xlink:href="#ArialMT-65" x="194.53125"/>
     <use xlink:href="#ArialMT-6e" x="250.146484"/>
     <use xlink:href="#ArialMT-74" x="305.761719"/>
    </g>
   </g>
   <g id="patch_43">
    <path d="M 574.38 90.26125 
L 596.38 90.26125 
L 596.38 82.56125 
L 574.38 82.56125 
z
" style="fill: #4c72b0; fill-opacity: 0.7; stroke: #4c72b0; stroke-linejoin: miter"/>
   </g>
   <g id="patch_44">
    <path d="M 574.38 105.821094 
L 596.38 105.821094 
L 596.38 98.121094 
L 574.38 98.121094 
z
" style="fill: #dd8452; fill-opacity: 0.7; stroke: #dd8452; stroke-linejoin: miter"/>
   </g>
   <g id="text_16">
    <!-- 0 % -->
    <g transform="translate(605.18 105.821094) scale(0.11 -0.11)">
     <defs>
      <path id="ArialMT-25" d="M 372 3481 
Q 372 3972 619 4315 
Q 866 4659 1334 4659 
Q 1766 4659 2048 4351 
Q 2331 4044 2331 3447 
Q 2331 2866 2045 2552 
Q 1759 2238 1341 2238 
Q 925 2238 648 2547 
Q 372 2856 372 3481 
z
M 1350 4272 
Q 1141 4272 1002 4090 
Q 863 3909 863 3425 
Q 863 2984 1003 2804 
Q 1144 2625 1350 2625 
Q 1563 2625 1702 2806 
Q 1841 2988 1841 3469 
Q 1841 3913 1700 4092 
Q 1559 4272 1350 4272 
z
M 1353 -169 
L 3859 4659 
L 4316 4659 
L 1819 -169 
L 1353 -169 
z
M 3334 1075 
Q 3334 1569 3581 1911 
Q 3828 2253 4300 2253 
Q 4731 2253 5014 1945 
Q 5297 1638 5297 1041 
Q 5297 459 5011 145 
Q 4725 -169 4303 -169 
Q 3888 -169 3611 142 
Q 3334 453 3334 1075 
z
M 4316 1866 
Q 4103 1866 3964 1684 
Q 3825 1503 3825 1019 
Q 3825 581 3965 400 
Q 4106 219 4313 219 
Q 4528 219 4667 400 
Q 4806 581 4806 1063 
Q 4806 1506 4665 1686 
Q 4525 1866 4316 1866 
z
" transform="scale(0.015625)"/>
     </defs>
     <use xlink:href="#ArialMT-30"/>
     <use xlink:href="#ArialMT-20" x="55.615234"/>
     <use xlink:href="#ArialMT-25" x="83.398438"/>
    </g>
   </g>
   <g id="patch_45">
    <path d="M 574.38 121.380937 
L 596.38 121.380937 
L 596.38 113.680937 
L 574.38 113.680937 
z
" style="fill: #55a868; fill-opacity: 0.7; stroke: #55a868; stroke-linejoin: miter"/>
   </g>
   <g id="text_17">
    <!-- 0-25% -->
    <g transform="translate(605.18 121.380937) scale(0.11 -0.11)">
     <defs>
      <path id="ArialMT-2d" d="M 203 1375 
L 203 1941 
L 1931 1941 
L 1931 1375 
L 203 1375 
z
" transform="scale(0.015625)"/>
      <path id="ArialMT-35" d="M 266 1200 
L 856 1250 
Q 922 819 1161 601 
Q 1400 384 1738 384 
Q 2144 384 2425 690 
Q 2706 997 2706 1503 
Q 2706 1984 2436 2262 
Q 2166 2541 1728 2541 
Q 1456 2541 1237 2417 
Q 1019 2294 894 2097 
L 366 2166 
L 809 4519 
L 3088 4519 
L 3088 3981 
L 1259 3981 
L 1013 2750 
Q 1425 3038 1878 3038 
Q 2478 3038 2890 2622 
Q 3303 2206 3303 1553 
Q 3303 931 2941 478 
Q 2500 -78 1738 -78 
Q 1113 -78 717 272 
Q 322 622 266 1200 
z
" transform="scale(0.015625)"/>
     </defs>
     <use xlink:href="#ArialMT-30"/>
     <use xlink:href="#ArialMT-2d" x="55.615234"/>
     <use xlink:href="#ArialMT-32" x="88.916016"/>
     <use xlink:href="#ArialMT-35" x="144.53125"/>
     <use xlink:href="#ArialMT-25" x="200.146484"/>
    </g>
   </g>
   <g id="patch_46">
    <path d="M 574.38 136.940781 
L 596.38 136.940781 
L 596.38 129.240781 
L 574.38 129.240781 
z
" style="fill: #c44e52; fill-opacity: 0.7; stroke: #c44e52; stroke-linejoin: miter"/>
   </g>
   <g id="text_18">
    <!-- 25-50% -->
    <g transform="translate(605.18 136.940781) scale(0.11 -0.11)">
     <use xlink:href="#ArialMT-32"/>
     <use xlink:href="#ArialMT-35" x="55.615234"/>
     <use xlink:href="#ArialMT-2d" x="111.230469"/>
     <use xlink:href="#ArialMT-35" x="144.53125"/>
     <use xlink:href="#ArialMT-30" x="200.146484"/>
     <use xlink:href="#ArialMT-25" x="255.761719"/>
    </g>
   </g>
   <g id="patch_47">
    <path d="M 574.38 152.500625 
L 596.38 152.500625 
L 596.38 144.800625 
L 574.38 144.800625 
z
" style="fill: #8172b3; fill-opacity: 0.7; stroke: #8172b3; stroke-linejoin: miter"/>
   </g>
   <g id="text_19">
    <!-- 50-75% -->
    <g transform="translate(605.18 152.500625) scale(0.11 -0.11)">
     <defs>
      <path id="ArialMT-37" d="M 303 3981 
L 303 4522 
L 3269 4522 
L 3269 4084 
Q 2831 3619 2401 2847 
Q 1972 2075 1738 1259 
Q 1569 684 1522 0 
L 944 0 
Q 953 541 1156 1306 
Q 1359 2072 1739 2783 
Q 2119 3494 2547 3981 
L 303 3981 
z
" transform="scale(0.015625)"/>
     </defs>
     <use xlink:href="#ArialMT-35"/>
     <use xlink:href="#ArialMT-30" x="55.615234"/>
     <use xlink:href="#ArialMT-2d" x="111.230469"/>
     <use xlink:href="#ArialMT-37" x="144.53125"/>
     <use xlink:href="#ArialMT-35" x="200.146484"/>
     <use xlink:href="#ArialMT-25" x="255.761719"/>
    </g>
   </g>
   <g id="patch_48">
    <path d="M 574.38 168.060469 
L 596.38 168.060469 
L 596.38 160.360469 
L 574.38 160.360469 
z
" style="fill: #937860; fill-opacity: 0.7; stroke: #937860; stroke-linejoin: miter"/>
   </g>
   <g id="text_20">
    <!-- 75-100% -->
    <g transform="translate(605.18 168.060469) scale(0.11 -0.11)">
     <use xlink:href="#ArialMT-37"/>
     <use xlink:href="#ArialMT-35" x="55.615234"/>
     <use xlink:href="#ArialMT-2d" x="111.230469"/>
     <use xlink:href="#ArialMT-31" x="144.53125"/>
     <use xlink:href="#ArialMT-30" x="200.146484"/>
     <use xlink:href="#ArialMT-30" x="255.761719"/>
     <use xlink:href="#ArialMT-25" x="311.376953"/>
    </g>
   </g>
  </g>
 </g>
 <defs>
  <clipPath id="p83b1d8da4c">
   <rect x="46.964375" y="7.2" width="510.315625" height="215.502"/>
  </clipPath>
  <clipPath id="p4acf722674">
   <path d="M 55.469635 222.702 
L 123.511719 222.702 
L 123.511719 196.194989 
L 55.469635 196.194989 
z
"/>
  </clipPath>
  <clipPath id="pcfadb8922a">
   <path d="M 55.469635 196.194989 
L 123.511719 196.194989 
L 123.511719 174.98938 
L 55.469635 174.98938 
z
"/>
  </clipPath>
  <clipPath id="p902e8b38fa">
   <path d="M 55.469635 174.98938 
L 123.511719 174.98938 
L 123.511719 43.211668 
L 55.469635 43.211668 
z
"/>
  </clipPath>
  <clipPath id="p06d86947d3">
   <path d="M 55.469635 43.211668 
L 123.511719 43.211668 
L 123.511719 25.035432 
L 55.469635 25.035432 
z
"/>
  </clipPath>
  <clipPath id="p89c949da02">
   <path d="M 55.469635 25.035432 
L 123.511719 25.035432 
L 123.511719 19.73403 
L 55.469635 19.73403 
z
"/>
  </clipPath>
  <clipPath id="p81bd392d8a">
   <path d="M 55.469635 19.73403 
L 123.511719 19.73403 
L 123.511719 17.462 
L 55.469635 17.462 
z
"/>
  </clipPath>
  <clipPath id="pdc1ff42403">
   <path d="M 140.52224 222.702 
L 208.564323 222.702 
L 208.564323 150.754399 
L 140.52224 150.754399 
z
"/>
  </clipPath>
  <clipPath id="pda6dcd6c80">
   <path d="M 140.52224 150.754399 
L 208.564323 150.754399 
L 208.564323 102.284435 
L 140.52224 102.284435 
z
"/>
  </clipPath>
  <clipPath id="p06bbd4537e">
   <path d="M 140.52224 102.284435 
L 208.564323 102.284435 
L 208.564323 40.939638 
L 140.52224 40.939638 
z
"/>
  </clipPath>
  <clipPath id="p4ec5c076d8">
   <path d="M 140.52224 40.939638 
L 208.564323 40.939638 
L 208.564323 25.035432 
L 140.52224 25.035432 
z
"/>
  </clipPath>
  <clipPath id="pb0d3fe179e">
   <path d="M 140.52224 25.035432 
L 208.564323 25.035432 
L 208.564323 18.976686 
L 140.52224 18.976686 
z
"/>
  </clipPath>
  <clipPath id="pcd48089658">
   <path d="M 140.52224 18.976686 
L 208.564323 18.976686 
L 208.564323 17.462 
L 140.52224 17.462 
z
"/>
  </clipPath>
  <clipPath id="p4f104828a0">
   <path d="M 225.574844 222.702 
L 293.616927 222.702 
L 293.616927 165.901262 
L 225.574844 165.901262 
z
"/>
  </clipPath>
  <clipPath id="p374315e36d">
   <path d="M 225.574844 165.901262 
L 293.616927 165.901262 
L 293.616927 121.975358 
L 225.574844 121.975358 
z
"/>
  </clipPath>
  <clipPath id="p5d3e82bd44">
   <path d="M 225.574844 121.975358 
L 293.616927 121.975358 
L 293.616927 56.086502 
L 225.574844 56.086502 
z
"/>
  </clipPath>
  <clipPath id="pe6c063e0a8">
   <path d="M 225.574844 56.086502 
L 293.616927 56.086502 
L 293.616927 31.094177 
L 225.574844 31.094177 
z
"/>
  </clipPath>
  <clipPath id="pb62b6f67e0">
   <path d="M 225.574844 31.094177 
L 293.616927 31.094177 
L 293.616927 22.763402 
L 225.574844 22.763402 
z
"/>
  </clipPath>
  <clipPath id="paacf169af6">
   <path d="M 225.574844 22.763402 
L 293.616927 22.763402 
L 293.616927 17.462 
L 225.574844 17.462 
z
"/>
  </clipPath>
  <clipPath id="p033ab1823b">
   <path d="M 310.627448 222.702 
L 378.669531 222.702 
L 378.669531 174.98938 
L 310.627448 174.98938 
z
"/>
  </clipPath>
  <clipPath id="pa1b6c87b5a">
   <path d="M 310.627448 174.98938 
L 378.669531 174.98938 
L 378.669531 131.820819 
L 310.627448 131.820819 
z
"/>
  </clipPath>
  <clipPath id="pf6699f152c">
   <path d="M 310.627448 131.820819 
L 378.669531 131.820819 
L 378.669531 60.630561 
L 310.627448 60.630561 
z
"/>
  </clipPath>
  <clipPath id="p879e28e1ee">
   <path d="M 310.627448 60.630561 
L 378.669531 60.630561 
L 378.669531 31.85152 
L 310.627448 31.85152 
z
"/>
  </clipPath>
  <clipPath id="p9a2828f111">
   <path d="M 310.627448 31.85152 
L 378.669531 31.85152 
L 378.669531 20.491373 
L 310.627448 20.491373 
z
"/>
  </clipPath>
  <clipPath id="p0ae7b56f20">
   <path d="M 310.627448 20.491373 
L 378.669531 20.491373 
L 378.669531 17.462 
L 310.627448 17.462 
z
"/>
  </clipPath>
  <clipPath id="p7640f97bcc">
   <path d="M 395.680052 222.702 
L 463.722135 222.702 
L 463.722135 171.960007 
L 395.680052 171.960007 
z
"/>
  </clipPath>
  <clipPath id="pfba66210b8">
   <path d="M 395.680052 171.960007 
L 463.722135 171.960007 
L 463.722135 137.879565 
L 395.680052 137.879565 
z
"/>
  </clipPath>
  <clipPath id="p1f431c34e9">
   <path d="M 395.680052 137.879565 
L 463.722135 137.879565 
L 463.722135 76.534768 
L 395.680052 76.534768 
z
"/>
  </clipPath>
  <clipPath id="p58ed9bd6f9">
   <path d="M 395.680052 76.534768 
L 463.722135 76.534768 
L 463.722135 38.667609 
L 395.680052 38.667609 
z
"/>
  </clipPath>
  <clipPath id="p6d64624bf3">
   <path d="M 395.680052 38.667609 
L 463.722135 38.667609 
L 463.722135 24.278089 
L 395.680052 24.278089 
z
"/>
  </clipPath>
  <clipPath id="pf20d78fee9">
   <path d="M 395.680052 24.278089 
L 463.722135 24.278089 
L 463.722135 17.462 
L 395.680052 17.462 
z
"/>
  </clipPath>
  <clipPath id="pd922f43eb4">
   <path d="M 480.732656 222.702 
L 548.77474 222.702 
L 548.77474 157.570487 
L 480.732656 157.570487 
z
"/>
  </clipPath>
  <clipPath id="p5cc63f05c3">
   <path d="M 480.732656 157.570487 
L 548.77474 157.570487 
L 548.77474 104.556465 
L 480.732656 104.556465 
z
"/>
  </clipPath>
  <clipPath id="p0aa89cc251">
   <path d="M 480.732656 104.556465 
L 548.77474 104.556465 
L 548.77474 34.880893 
L 480.732656 34.880893 
z
"/>
  </clipPath>
  <clipPath id="pa289c3932c">
   <path d="M 480.732656 34.880893 
L 548.77474 34.880893 
L 548.77474 18.219343 
L 480.732656 18.219343 
z
"/>
  </clipPath>
  <clipPath id="p3cfc4aabcc">
   <path d="M 480.732656 18.219343 
L 548.77474 18.219343 
L 548.77474 17.462 
L 480.732656 17.462 
z
"/>
  </clipPath>
 </defs>
</svg>
